<svg xmlns="http://www.w3.org/2000/svg" width="533" height="533" viewBox="0 0 533 533">
  <defs>
    <style>
      .cls-1 {
        fill: #ff002b;
      }

      .cls-2 {
        fill: #fff;
        fill-rule: evenodd;
      }
    </style>
  </defs>
  <circle class="cls-1" cx="266.5" cy="266.5" r="266.5"/>
  <path id="_WanNA" data-name=" WanNA" class="cls-2" d="M154.864,167.653l-3.382,29.256,0.114,0.031,10.389-27.379,10.254,2.748L154.39,211.121l-11.621-3.114,3.795-28.29-0.114-.031-10.859,26.4L123.97,202.97l3.949-42.537,10.254,2.748-4.351,29,0.114,0.031,11.357-27.119ZM184.48,184.5l-1.72,18.04-5.924-1.588,7.53-16.482Zm-4.494-10.118-20.639,38.064,11.108,2.976,2.99-6.83,8.431,2.259-0.825,7.411,11.279,3.022,0.987-43.33Zm36.858,9.876,0.12,26.9,0.114,0.03,6.716-25.065,9.912,2.656-10.9,40.674-11.621-3.114-0.332-27.015-0.114-.03-6.732,25.122L194.1,221.76,205,181.086Zm33.724,9.036,0.12,26.9,0.114,0.031,6.716-25.066,9.912,2.656-10.9,40.674-11.621-3.113-0.332-27.015-0.114-.031-6.732,25.122L227.82,230.8l10.9-40.674ZM283.6,211.063L281.882,229.1l-5.925-1.587,7.53-16.483Zm-4.493-10.119-20.64,38.064,11.109,2.977,2.99-6.831L281,237.413l-0.826,7.411,11.28,3.022,0.986-43.33Z"/>
  <path id="See_More_" data-name="See More?" class="cls-2" d="M93.378,225.16a9.664,9.664,0,0,0,.139-5.041,3.877,3.877,0,0,0-2.953-2.887,4.541,4.541,0,0,0-4.279.67,6.546,6.546,0,0,0-2.23,3.455,6.42,6.42,0,0,0,.663,5.349,18.661,18.661,0,0,0,4.085,4.4q2.605,2.1,5.636,4.351a29.436,29.436,0,0,1,5.4,5.222,18.1,18.1,0,0,1,3.386,7.01,19.475,19.475,0,0,1-.5,9.7q-2.655,9.909-9.506,12.873t-17.543.1a44.526,44.526,0,0,1-8.689-3.214,16.528,16.528,0,0,1-5.751-4.616,13.366,13.366,0,0,1-2.61-6.429,21.838,21.838,0,0,1,.8-8.545l0.582-2.173,15.648,4.193-0.4,1.478q-1.072,4-.025,6a5.127,5.127,0,0,0,3.394,2.633,4.765,4.765,0,0,0,4.334-.7,6.981,6.981,0,0,0,2.489-3.9,6.577,6.577,0,0,0-.576-5.325,17.075,17.075,0,0,0-3.879-4.3q-2.489-2.016-5.442-4.206a27.824,27.824,0,0,1-5.22-5.033,17.29,17.29,0,0,1-3.227-6.735,18.946,18.946,0,0,1,.507-9.368q2.539-9.474,8.909-13.08t16.628-.855q10.605,2.841,14.121,8.675t0.836,15.831l-15.126-4.053Zm63.69-.544-3.541,13.214-20.6-5.521-2.842,10.606,19.3,5.171-3.4,12.692-19.3-5.171-3.308,12.345,21.386,5.73L141.218,286.9l-37.555-10.063L120.3,214.762Zm43.466,11.647-3.54,13.213-20.6-5.52-2.841,10.606,19.3,5.171-3.4,12.692-19.3-5.171L166.84,279.6l21.386,5.731-3.541,13.214L147.13,288.48l16.631-62.071Zm51.812,13.882-3.333,38.52,0.174,0.047,16.373-35.026,23.124,6.2-16.632,62.071L256.926,317.9l12.392-46.249-0.174-.047-21,43.943L236.5,312.426l3.786-48.555-0.174-.047-12.393,46.249L212.59,306.02l16.632-62.071Zm47.319,57.077a38.4,38.4,0,0,0-1.019,6.762,6.587,6.587,0,0,0,.743,3.833,5.085,5.085,0,0,0,5.824,1.561,6.615,6.615,0,0,0,2.561-2.948,38.674,38.674,0,0,0,2.5-6.366q1.28-4.082,2.958-10.342t2.609-10.435a38.656,38.656,0,0,0,1.02-6.761,6.623,6.623,0,0,0-.743-3.833,5.086,5.086,0,0,0-5.825-1.561,6.607,6.607,0,0,0-2.56,2.948,38.373,38.373,0,0,0-2.5,6.365q-1.283,4.083-2.958,10.342T299.665,307.222ZM290.686,277.8a27.225,27.225,0,0,1,6.416-9,15.751,15.751,0,0,1,8.382-3.811,32.541,32.541,0,0,1,20.864,5.591,15.744,15.744,0,0,1,5.354,7.491,27.252,27.252,0,0,1,1.059,11,101.177,101.177,0,0,1-7.943,29.644,27.23,27.23,0,0,1-6.417,9,14.908,14.908,0,0,1-8.347,3.68A34.968,34.968,0,0,1,289.19,325.8a14.892,14.892,0,0,1-5.388-7.36,27.216,27.216,0,0,1-1.06-11A101.22,101.22,0,0,1,290.686,277.8Zm65.726,28.373q3.476,0.932,5.676-.669a8.531,8.531,0,0,0,3.084-4.9q1.048-3.912-.117-5.994t-4.817-3.061l-3.13-.839L353.2,305.307Zm12.946-24.67a23.371,23.371,0,0,1,7.541,3.325,13.944,13.944,0,0,1,4.383,4.855,13.743,13.743,0,0,1,1.546,6.051,23.694,23.694,0,0,1-.857,6.852q-1.677,6.258-5.223,9.408t-9.343,2.528l-0.046.174q5.684,2.082,6.9,6.229T373.8,331.327l-1.421,5.3-0.676,2.521q-0.35,1.3-.577,2.5a20.508,20.508,0,0,0-.309,2.2,5.836,5.836,0,0,0,.038,1.594q0.207,0.615.428,1.186a3.532,3.532,0,0,0,.885,1.216l-0.233.869-17.212-4.612a11.129,11.129,0,0,1-.145-3.114,33.356,33.356,0,0,1,.451-3.419q0.312-1.686.676-3.22t0.621-2.489l1.118-4.173a31.162,31.162,0,0,0,.9-4.417,7.156,7.156,0,0,0-.179-2.983,3.6,3.6,0,0,0-1.279-1.833,7.073,7.073,0,0,0-2.373-1.055l-4.26-1.142L343.6,341.123l-16.169-4.332L344.06,274.72Zm61.374,16.445-3.541,13.214-20.6-5.521-2.842,10.606,19.3,5.171-3.4,12.692-19.3-5.171-3.307,12.345,21.385,5.73-3.54,13.214-37.556-10.063,16.632-62.07Zm18.431,56.744-3.68,13.735-14.605-3.913,3.681-13.736Zm-14.175-44.982a16.032,16.032,0,0,1,5.418-5.443,14.888,14.888,0,0,1,7.1-1.966,30.215,30.215,0,0,1,8.68,1.162q9.474,2.538,12.695,8.433T470,325.61a24.472,24.472,0,0,1-2.718,6.492,14.99,14.99,0,0,1-4.675,4.757l-8.28,5.515a7.5,7.5,0,0,0-2.563,3.134,29.189,29.189,0,0,0-1.719,4.85l-14.083-3.773,0.652-2.435a34.9,34.9,0,0,1,2.937-7.831,14.116,14.116,0,0,1,4.458-4.815l6.69-4.451a9.035,9.035,0,0,0,3.213-3.471,20.138,20.138,0,0,0,1.358-3.5,8.04,8.04,0,0,0,.139-4.342,3.335,3.335,0,0,0-2.537-2.357,4.179,4.179,0,0,0-1.93-.1,3.12,3.12,0,0,0-1.712,1.172,12.608,12.608,0,0,0-1.7,3.039,42.538,42.538,0,0,0-1.807,5.525l-14.605-3.913A33.812,33.812,0,0,1,434.988,309.706Z"/>
</svg>
