<svg id="Layer_9" data-name="Layer 9" xmlns="http://www.w3.org/2000/svg" viewBox="0 0 404.32 404.32"><defs><style>.cls-1{fill:none;stroke:#fff;stroke-miterlimit:10;stroke-width:15px;}.cls-2{fill:#fff;}</style></defs><title>1916_Herm</title><g id="Circle"><circle id="Circle2" class="cls-1" cx="202.16" cy="202.16" r="194.66"/></g><g id="_1916_HERM" data-name="1916 HERM"><path class="cls-2" d="M355.53,267.82H344.7V224.31q0-7.78.36-12.35c-.7.74-1.57,1.55-2.6,2.44s-4.48,3.72-10.35,8.48L326.68,216l19.81-15.58h9Z" transform="translate(-227.66 -85.29)"/><path class="cls-2" d="M423.18,229.2q0,19.91-8,29.72T391,268.74a36.92,36.92,0,0,1-8.8-.74v-9.08a30.37,30.37,0,0,0,8.25,1.16q11,0,16.36-5.9t5.9-18.53h-.55a16.25,16.25,0,0,1-6.57,6,20.62,20.62,0,0,1-9,1.84q-8.94,0-14.06-5.57t-5.11-15.3q0-10.56,5.92-16.8t16.16-6.25A22.3,22.3,0,0,1,412,203.07a22.52,22.52,0,0,1,8.25,10.16A39.72,39.72,0,0,1,423.18,229.2Zm-23.5-20.65q-5.62,0-8.62,3.66t-3,10.3c0,3.85.93,6.86,2.79,9.06s4.68,3.3,8.46,3.3a13.45,13.45,0,0,0,9.22-3.28,9.89,9.89,0,0,0,3.73-7.65,18.65,18.65,0,0,0-1.59-7.67,13.7,13.7,0,0,0-4.45-5.65A10.84,10.84,0,0,0,399.68,208.55Z" transform="translate(-227.66 -85.29)"/><path class="cls-2" d="M463.28,267.82H452.45V224.31q0-7.78.37-12.35c-.71.74-1.58,1.55-2.61,2.44s-4.47,3.72-10.34,8.48L434.43,216l19.82-15.58h9Z" transform="translate(-227.66 -85.29)"/><path class="cls-2" d="M485.54,239.11q0-39.56,32.22-39.55a39.44,39.44,0,0,1,8.57.79v9a29.15,29.15,0,0,0-8.11-1q-10.83,0-16.27,5.8t-5.9,18.62h.55a14.83,14.83,0,0,1,6.09-5.78,19.55,19.55,0,0,1,9.21-2q9.18,0,14.29,5.62t5.12,15.26q0,10.59-5.93,16.75t-16.15,6.15a22.54,22.54,0,0,1-12.58-3.48,22.19,22.19,0,0,1-8.23-10.14A40.22,40.22,0,0,1,485.54,239.11Zm23.51,20.69q5.56,0,8.59-3.59t3-10.28c0-3.87-.94-6.92-2.83-9.13s-4.73-3.32-8.51-3.32a14,14,0,0,0-6.45,1.5,11.82,11.82,0,0,0-4.65,4.1,9.61,9.61,0,0,0-1.71,5.33A17.05,17.05,0,0,0,500,255.35,11,11,0,0,0,509.05,259.8Z" transform="translate(-227.66 -85.29)"/><path class="cls-2" d="M353.87,356.92H342.81V326.55H311.74v30.37h-11V289.54h11V317.1h31.07V289.54h11.06Z" transform="translate(-227.66 -85.29)"/><path class="cls-2" d="M409.73,356.92H371.61V289.54h38.12v9.31h-27.1v18.34H408v9.22H382.63v21.15h27.1Z" transform="translate(-227.66 -85.29)"/><path class="cls-2" d="M435.31,330v26.92h-11V289.54h19q13,0,19.31,4.88t6.26,14.75q0,12.58-13.08,17.93l19,29.82H462.31L446.18,330Zm0-9.12H443q7.69,0,11.15-2.86c2.3-1.9,3.46-4.73,3.46-8.48s-1.25-6.54-3.74-8.2-6.23-2.49-11.24-2.49h-7.28Z" transform="translate(-227.66 -85.29)"/><path class="cls-2" d="M513.75,356.92l-19.54-56.27h-.37q.78,12.53.78,23.5v32.77h-10V289.54h15.53l18.71,53.6h.28l19.26-53.6H554v67.38h-10.6V323.6q0-5,.26-13.09c.16-5.38.31-8.63.43-9.77h-.36l-20.24,56.18Z" transform="translate(-227.66 -85.29)"/></g></svg>