<svg xmlns="http://www.w3.org/2000/svg" viewBox="0 0 404.32 404.32"><defs><style>.cls-1{fill:none;stroke:#fff;stroke-miterlimit:10;stroke-width:15px;}.cls-2{fill:#fff;}</style></defs><title>1916_Barge</title><g id="Layer_6" data-name="Layer 6"><g id="Control_04" data-name="Control 04"><circle id="Circle2" class="cls-1" cx="202.16" cy="202.16" r="194.66"/></g></g><g id="Fingers"><path class="cls-2" d="M355.2,267.11H344.39V223.67q0-7.77.37-12.33c-.71.74-1.57,1.55-2.6,2.44s-4.47,3.71-10.33,8.47l-5.43-6.86,19.79-15.55h9Z" transform="translate(-227.66 -85.29)"/><path class="cls-2" d="M422.75,228.55q0,19.88-8,29.68T390.63,268a36.82,36.82,0,0,1-8.79-.74v-9.06a30.63,30.63,0,0,0,8.24,1.15q10.95,0,16.33-5.89T412.3,235h-.55a16.26,16.26,0,0,1-6.56,6,20.56,20.56,0,0,1-9,1.84q-8.93,0-14-5.56T377.06,222q0-10.53,5.91-16.77T399.1,199a21.46,21.46,0,0,1,20.75,13.64A39.74,39.74,0,0,1,422.75,228.55Zm-23.47-20.61q-5.61,0-8.6,3.66t-3,10.28c0,3.83.92,6.85,2.78,9s4.67,3.29,8.44,3.29a13.48,13.48,0,0,0,9.21-3.27,9.87,9.87,0,0,0,3.72-7.63,18.72,18.72,0,0,0-1.58-7.66,13.6,13.6,0,0,0-4.45-5.64A10.81,10.81,0,0,0,399.28,207.94Z" transform="translate(-227.66 -85.29)"/><path class="cls-2" d="M462.78,267.11H452V223.67q0-7.77.37-12.33c-.7.74-1.57,1.55-2.6,2.44s-4.47,3.71-10.33,8.47L434,215.39l19.79-15.55h9Z" transform="translate(-227.66 -85.29)"/><path class="cls-2" d="M485,238.44Q485,199,517.16,199a40,40,0,0,1,8.56.78v9a29,29,0,0,0-8.1-1q-10.81,0-16.24,5.8t-5.89,18.59H496a14.75,14.75,0,0,1,6.07-5.77,19.55,19.55,0,0,1,9.21-2.05q9.15,0,14.26,5.61t5.11,15.23q0,10.59-5.92,16.72T508.65,268a22.47,22.47,0,0,1-12.56-3.48,22.18,22.18,0,0,1-8.22-10.12A40.26,40.26,0,0,1,485,238.44Zm23.46,20.66c3.71,0,6.58-1.2,8.58-3.59s3-5.81,3-10.26q0-5.79-2.83-9.11t-8.49-3.31a14.09,14.09,0,0,0-6.44,1.49,11.89,11.89,0,0,0-4.65,4.1,9.61,9.61,0,0,0-1.7,5.31,17,17,0,0,0,3.52,10.93A11,11,0,0,0,508.46,259.1Z" transform="translate(-227.66 -85.29)"/><path class="cls-2" d="M282.9,289.62h20q13.89,0,20.08,4.05t6.19,12.79a15.45,15.45,0,0,1-3,9.8,13.59,13.59,0,0,1-8.74,4.93v.46q7.08,1.34,10.42,5.27t3.34,10.65q0,9.06-6.33,14.19t-17.6,5.13H282.9Zm11,27.79h10.58q6.9,0,10.07-2.18t3.18-7.43q0-4.74-3.43-6.86t-10.88-2.11H293.9Zm0,8.93v21.3h11.68q6.9,0,10.42-2.64t3.52-8.35c0-3.5-1.19-6.09-3.59-7.78s-6-2.53-10.9-2.53Z" transform="translate(-227.66 -85.29)"/><path class="cls-2" d="M386.84,356.89l-6.72-18.68H354.4l-6.58,18.68H336.23l25.16-67.54h12l25.17,67.54Zm-9.62-28.16-6.3-18.31q-.69-1.85-1.91-5.8c-.82-2.63-1.38-4.57-1.68-5.79a102.26,102.26,0,0,1-3.64,12.37l-6.07,17.53Z" transform="translate(-227.66 -85.29)"/><path class="cls-2" d="M418.4,330v26.87h-11V289.62h19q13,0,19.28,4.88t6.26,14.72q0,12.57-13.07,17.9l19,29.77H445.36L429.26,330Zm0-9.11H426q7.68,0,11.13-2.85c2.3-1.9,3.45-4.73,3.45-8.47s-1.24-6.53-3.73-8.19-6.22-2.48-11.22-2.48H418.4Z" transform="translate(-227.66 -85.29)"/><path class="cls-2" d="M495.14,320.4H519.9v33.78a71.28,71.28,0,0,1-11.67,2.8,81.35,81.35,0,0,1-12.07.83q-15.29,0-23.56-9t-8.28-25.51q0-16.25,9.34-25.42t25.72-9.18a50,50,0,0,1,20,4l-3.86,9.15a38.93,38.93,0,0,0-16.38-3.77q-10.77,0-17,6.76t-6.26,18.5q0,12.33,5.64,18.75t16.21,6.42a53.22,53.22,0,0,0,11.41-1.34V329.84H495.14Z" transform="translate(-227.66 -85.29)"/><path class="cls-2" d="M574.1,356.89H536.05V289.62H574.1v9.3H547v18.31h25.35v9.2H547v21.12H574.1Z" transform="translate(-227.66 -85.29)"/></g></svg>