<svg xmlns="http://www.w3.org/2000/svg" viewBox="0 0 404.32 404.32"><defs><style>.cls-1{fill:none;stroke:#fff;stroke-miterlimit:10;stroke-width:15px;}.cls-2{fill:#fff;}</style></defs><title>2017_Barge</title><g id="Layer_6" data-name="Layer 6"><g id="Control_04" data-name="Control 04"><circle id="Circle2" class="cls-1" cx="202.16" cy="202.16" r="194.66"/></g></g><g id="Fingers"><path class="cls-2" d="M369.05,267.11H323.46v-8.19l17.34-17.44A144.9,144.9,0,0,0,351,230.32a26.27,26.27,0,0,0,3.66-6.19,16.6,16.6,0,0,0,1.15-6.21,9.47,9.47,0,0,0-2.74-7.18,10.5,10.5,0,0,0-7.56-2.62,20.21,20.21,0,0,0-7.48,1.43,35.06,35.06,0,0,0-8.35,5.15l-5.84-7.13a37.64,37.64,0,0,1,10.9-6.72,31.89,31.89,0,0,1,11.27-2q9.39,0,15.05,4.9T366.71,217a23.14,23.14,0,0,1-1.64,8.65,35.32,35.32,0,0,1-5,8.44,114.86,114.86,0,0,1-11.25,11.75l-11.69,11.32v.46h31.93Z" transform="translate(-227.66 -85.29)"/><path class="cls-2" d="M422.84,233.47q0,17.53-5.64,26T400,268q-11.22,0-17-8.79t-5.8-25.77q0-17.81,5.64-26.24T400,198.78q11.28,0,17.07,8.84T422.84,233.47Zm-34.74,0q0,13.77,2.83,19.65t9,5.89q6.21,0,9.09-6t2.87-19.56q0-13.51-2.87-19.57T400,207.85q-6.21,0-9,5.93T388.1,233.47Z" transform="translate(-227.66 -85.29)"/><path class="cls-2" d="M462.78,267.11H452V223.67q0-7.77.37-12.33c-.7.74-1.57,1.55-2.6,2.44s-4.47,3.71-10.33,8.47L434,215.39l19.79-15.55h9Z" transform="translate(-227.66 -85.29)"/><path class="cls-2" d="M492.45,267.11l26.6-57.65h-35v-9.53h46.51v7.55l-26.45,59.63Z" transform="translate(-227.66 -85.29)"/><path class="cls-2" d="M282.9,289.62h20q13.89,0,20.08,4.05t6.19,12.79a15.45,15.45,0,0,1-3,9.8,13.59,13.59,0,0,1-8.74,4.93v.46q7.08,1.34,10.42,5.27t3.34,10.65q0,9.06-6.33,14.19t-17.6,5.13H282.9Zm11,27.79h10.58q6.9,0,10.07-2.18t3.18-7.43q0-4.74-3.43-6.86t-10.88-2.11H293.9Zm0,8.93v21.3h11.68q6.9,0,10.42-2.64t3.52-8.35c0-3.5-1.19-6.09-3.59-7.78s-6-2.53-10.9-2.53Z" transform="translate(-227.66 -85.29)"/><path class="cls-2" d="M386.84,356.89l-6.72-18.68H354.4l-6.58,18.68H336.23l25.16-67.54h12l25.17,67.54Zm-9.62-28.16-6.3-18.31q-.69-1.85-1.91-5.8c-.82-2.63-1.38-4.57-1.68-5.79a102.26,102.26,0,0,1-3.64,12.37l-6.07,17.53Z" transform="translate(-227.66 -85.29)"/><path class="cls-2" d="M418.4,330v26.87h-11V289.62h19q13,0,19.28,4.88t6.26,14.72q0,12.57-13.07,17.9l19,29.77H445.36L429.26,330Zm0-9.11H426q7.68,0,11.13-2.85c2.3-1.9,3.45-4.73,3.45-8.47s-1.24-6.53-3.73-8.19-6.22-2.48-11.22-2.48H418.4Z" transform="translate(-227.66 -85.29)"/><path class="cls-2" d="M495.14,320.4H519.9v33.78a71.28,71.28,0,0,1-11.67,2.8,81.35,81.35,0,0,1-12.07.83q-15.29,0-23.56-9t-8.28-25.51q0-16.25,9.34-25.42t25.72-9.18a50,50,0,0,1,20,4l-3.86,9.15a38.93,38.93,0,0,0-16.38-3.77q-10.77,0-17,6.76t-6.26,18.5q0,12.33,5.64,18.75t16.21,6.42a53.22,53.22,0,0,0,11.41-1.34V329.84H495.14Z" transform="translate(-227.66 -85.29)"/><path class="cls-2" d="M574.1,356.89H536.05V289.62H574.1v9.3H547v18.31h25.35v9.2H547v21.12H574.1Z" transform="translate(-227.66 -85.29)"/></g></svg>