<svg id="Layer_9" data-name="Layer 9" xmlns="http://www.w3.org/2000/svg" viewBox="0 0 404.32 404.32"><defs><style>.cls-1{fill:none;stroke:#fff;stroke-miterlimit:10;stroke-width:15px;}.cls-2{fill:#fff;}</style></defs><title>2017_Herm</title><g id="Circle"><circle id="Circle2" class="cls-1" cx="202.16" cy="202.16" r="194.66"/></g><g id="_2017_HERM" data-name="2017 HERM"><path class="cls-2" d="M369.4,267.82H323.73v-8.2l17.37-17.47A149.82,149.82,0,0,0,351.31,231a26.31,26.31,0,0,0,3.66-6.2,16.66,16.66,0,0,0,1.16-6.22,9.49,9.49,0,0,0-2.75-7.19,10.49,10.49,0,0,0-7.58-2.63,20.27,20.27,0,0,0-7.49,1.43,35.51,35.51,0,0,0-8.36,5.16l-5.86-7.14A37.81,37.81,0,0,1,335,201.45a32,32,0,0,1,11.29-2q9.4,0,15.07,4.91t5.67,13.2a23.21,23.21,0,0,1-1.64,8.67,35.34,35.34,0,0,1-5,8.46,116.28,116.28,0,0,1-11.27,11.77l-11.71,11.34v.46h32Z" transform="translate(-227.66 -85.29)"/><path class="cls-2" d="M423.28,234.13q0,17.56-5.65,26.08t-17.26,8.53q-11.25,0-17.05-8.8t-5.81-25.81q0-17.83,5.65-26.29t17.21-8.46q11.29,0,17.1,8.85T423.28,234.13Zm-34.8,0q0,13.78,2.83,19.68t9.06,5.9q6.22,0,9.1-6t2.88-19.59q0-13.55-2.88-19.61t-9.1-6.06q-6.22,0-9.06,5.94T388.48,234.13Z" transform="translate(-227.66 -85.29)"/><path class="cls-2" d="M463.28,267.82H452.45V224.31q0-7.78.37-12.35c-.71.74-1.58,1.55-2.61,2.44s-4.47,3.72-10.34,8.48L434.43,216l19.82-15.58h9Z" transform="translate(-227.66 -85.29)"/><path class="cls-2" d="M493,267.82l26.64-57.75h-35v-9.54h46.59v7.56l-26.5,59.73Z" transform="translate(-227.66 -85.29)"/><path class="cls-2" d="M353.87,356.92H342.81V326.55H311.74v30.37h-11V289.54h11V317.1h31.07V289.54h11.06Z" transform="translate(-227.66 -85.29)"/><path class="cls-2" d="M409.73,356.92H371.61V289.54h38.12v9.31h-27.1v18.34H408v9.22H382.63v21.15h27.1Z" transform="translate(-227.66 -85.29)"/><path class="cls-2" d="M435.31,330v26.92h-11V289.54h19q13,0,19.31,4.88t6.26,14.75q0,12.58-13.08,17.93l19,29.82H462.31L446.18,330Zm0-9.12H443q7.69,0,11.15-2.86c2.3-1.9,3.46-4.73,3.46-8.48s-1.25-6.54-3.74-8.2-6.23-2.49-11.24-2.49h-7.28Z" transform="translate(-227.66 -85.29)"/><path class="cls-2" d="M513.75,356.92l-19.54-56.27h-.37q.78,12.53.78,23.5v32.77h-10V289.54h15.53l18.71,53.6h.28l19.26-53.6H554v67.38h-10.6V323.6q0-5,.26-13.09c.16-5.38.31-8.63.43-9.77h-.36l-20.24,56.18Z" transform="translate(-227.66 -85.29)"/></g></svg>