<svg id="Layer_9" data-name="Layer 9" xmlns="http://www.w3.org/2000/svg" viewBox="0 0 404.32 404.32"><defs><style>.cls-1{fill:none;stroke:#fff;stroke-miterlimit:10;stroke-width:15px;}.cls-2{fill:#fff;}</style></defs><title>2017_Sculptures</title><g id="Circle"><circle id="Circle2" class="cls-1" cx="202.16" cy="202.16" r="194.66"/></g><g id="_2017_SCULPTURES" data-name="2017 SCULPTURES"><path class="cls-2" d="M383.14,274.92H348.3v-6.26l13.25-13.32a111.63,111.63,0,0,0,7.79-8.53,20.26,20.26,0,0,0,2.8-4.73,12.8,12.8,0,0,0,.88-4.74,7.24,7.24,0,0,0-2.1-5.49,8,8,0,0,0-5.78-2,15.33,15.33,0,0,0-5.71,1.09,26.74,26.74,0,0,0-6.38,3.94l-4.47-5.45a28.83,28.83,0,0,1,8.33-5.14,24.61,24.61,0,0,1,8.62-1.51q7.17,0,11.49,3.75a12.61,12.61,0,0,1,4.33,10.07,17.74,17.74,0,0,1-1.25,6.61,26.69,26.69,0,0,1-3.83,6.45,87.43,87.43,0,0,1-8.6,9l-8.93,8.65v.35h24.4Z" transform="translate(-227.66 -85.29)"/><path class="cls-2" d="M424.24,249.22q0,13.39-4.31,19.9t-13.16,6.5q-8.58,0-13-6.71t-4.43-19.69q0-13.6,4.3-20.06t13.14-6.45q8.61,0,13,6.75T424.24,249.22Zm-26.54,0q0,10.52,2.16,15a7.55,7.55,0,0,0,13.85-.07c1.46-3,2.2-8,2.2-14.94s-.74-11.88-2.2-15-3.78-4.62-6.94-4.62a7.2,7.2,0,0,0-6.91,4.53Q397.7,238.71,397.7,249.22Z" transform="translate(-227.66 -85.29)"/><path class="cls-2" d="M454.75,274.92h-8.26V241.73c0-4,.1-7.1.28-9.42q-.81.84-2,1.86t-7.9,6.47l-4.14-5.24,15.11-11.88h6.89Z" transform="translate(-227.66 -85.29)"/><path class="cls-2" d="M477.43,274.92l20.32-44.05H471v-7.28h35.54v5.77l-20.21,45.56Z" transform="translate(-227.66 -85.29)"/><path class="cls-2" d="M284,316.88a10,10,0,0,1-3.85,8.35q-3.86,3-10.62,3a25.35,25.35,0,0,1-11.09-2.1V320a30.33,30.33,0,0,0,5.8,2,24.74,24.74,0,0,0,5.72.74c2.59,0,4.49-.5,5.72-1.48a4.8,4.8,0,0,0,1.85-4,5,5,0,0,0-1.7-3.79q-1.69-1.56-7-3.69-5.46-2.22-7.7-5.05a10.72,10.72,0,0,1-2.24-6.83,9.58,9.58,0,0,1,3.55-7.87q3.56-2.86,9.53-2.86a27.93,27.93,0,0,1,11.42,2.51l-2.08,5.32a25,25,0,0,0-9.5-2.24,7.3,7.3,0,0,0-4.81,1.38,4.55,4.55,0,0,0-1.64,3.65,5.07,5.07,0,0,0,.66,2.66,6.67,6.67,0,0,0,2.16,2.09,36.43,36.43,0,0,0,5.4,2.6A29.39,29.39,0,0,1,280,308.6a9.94,9.94,0,0,1,3,3.58A10.71,10.71,0,0,1,284,316.88Z" transform="translate(-227.66 -85.29)"/><path class="cls-2" d="M308.68,292.81a10.73,10.73,0,0,0-8.84,4q-3.22,4-3.23,11,0,7.35,3.1,11.11t9,3.77a24,24,0,0,0,4.92-.5q2.37-.51,4.94-1.3v5.6a30,30,0,0,1-10.65,1.77q-8.76,0-13.46-5.31t-4.7-15.2A24.53,24.53,0,0,1,292,296.86a16.26,16.26,0,0,1,6.6-7.16,19.88,19.88,0,0,1,10.13-2.48,25.17,25.17,0,0,1,11.31,2.56l-2.35,5.44a34.62,34.62,0,0,0-4.28-1.68A15.46,15.46,0,0,0,308.68,292.81Z" transform="translate(-227.66 -85.29)"/><path class="cls-2" d="M358.44,287.79v25.84a15.38,15.38,0,0,1-1.89,7.74,12.68,12.68,0,0,1-5.49,5.1,19,19,0,0,1-8.59,1.79q-7.44,0-11.55-3.93t-4.13-10.81V287.79h6.56v25.26q0,4.95,2.29,7.29t7.05,2.35q9.22,0,9.23-9.69V287.79Z" transform="translate(-227.66 -85.29)"/><path class="cls-2" d="M368.66,327.72V287.79h6.52v34.33h16.91v5.6Z" transform="translate(-227.66 -85.29)"/><path class="cls-2" d="M425.41,299.86q0,6.25-4.1,9.59t-11.66,3.33H405.5v14.94H399V287.79h11.5q7.48,0,11.21,3.06T425.41,299.86Zm-19.91,7.43H409c3.35,0,5.8-.58,7.37-1.75s2.35-3,2.35-5.46a6.22,6.22,0,0,0-2.1-5.14c-1.41-1.12-3.59-1.69-6.56-1.69H405.5Z" transform="translate(-227.66 -85.29)"/><path class="cls-2" d="M447.17,327.72h-6.52V293.39H428.9v-5.6h30v5.6H447.17Z" transform="translate(-227.66 -85.29)"/><path class="cls-2" d="M496.33,287.79v25.84a15.29,15.29,0,0,1-1.9,7.74,12.57,12.57,0,0,1-5.49,5.1,19,19,0,0,1-8.59,1.79q-7.43,0-11.55-3.93t-4.12-10.81V287.79h6.55v25.26q0,4.95,2.3,7.29t7,2.35q9.24,0,9.23-9.69V287.79Z" transform="translate(-227.66 -85.29)"/><path class="cls-2" d="M513.07,311.77v16h-6.53V287.79h11.28q7.74,0,11.45,2.89t3.71,8.74q0,7.45-7.76,10.63l11.28,17.67h-7.42l-9.56-16Zm0-5.41h4.53q4.57,0,6.61-1.69a6.14,6.14,0,0,0,2-5q0-3.39-2.21-4.86c-1.47-1-3.7-1.47-6.66-1.47h-4.32Z" transform="translate(-227.66 -85.29)"/><path class="cls-2" d="M564.88,327.72H542.29V287.79h22.59v5.52H548.82v10.87h15v5.46h-15v12.53h16.06Z" transform="translate(-227.66 -85.29)"/><path class="cls-2" d="M596.53,316.88a10,10,0,0,1-3.85,8.35q-3.85,3-10.62,3a25.35,25.35,0,0,1-11.09-2.1V320a30.33,30.33,0,0,0,5.8,2,24.74,24.74,0,0,0,5.72.74c2.59,0,4.5-.5,5.72-1.48a4.8,4.8,0,0,0,1.85-4,5,5,0,0,0-1.7-3.79q-1.68-1.56-7-3.69t-7.7-5.05a10.72,10.72,0,0,1-2.24-6.83,9.6,9.6,0,0,1,3.55-7.87q3.56-2.86,9.53-2.86a27.93,27.93,0,0,1,11.42,2.51l-2.08,5.32a25,25,0,0,0-9.5-2.24,7.32,7.32,0,0,0-4.81,1.38,4.54,4.54,0,0,0-1.63,3.65,5.07,5.07,0,0,0,.65,2.66,6.67,6.67,0,0,0,2.16,2.09,36.16,36.16,0,0,0,5.41,2.6,29.28,29.28,0,0,1,6.44,3.41,9.94,9.94,0,0,1,3,3.58A10.71,10.71,0,0,1,596.53,316.88Z" transform="translate(-227.66 -85.29)"/></g></svg>