<svg id="Layer_2" data-name="Layer 2" xmlns="http://www.w3.org/2000/svg" viewBox="0 0 311.36 549.78"><defs><style>.cls-1{fill:#fff;}</style></defs><title>Arrow_Triangle_R</title><path class="cls-1" d="M543.38,156.09s-1.43-35.33,18-45.84c19.72-10.67,38.41.59,53.07,14.19,17.77,16.49,34.3,34.5,51.37,51.71Q703,213.61,740.19,251q34.84,35,69.7,70c5.5,5.52,11.25,10.89,16.55,16.61,14,15,34,29,26.73,52.24-6.06,19.27-23.54,33.48-37.68,46.86-2.08,2-4.15,3.94-6.16,6q-31.82,32.07-63.84,63.93-34.63,34.53-69.38,68.95Q651,600.43,625.74,625.19c-14.25,13.92-28,30.71-49.66,30.61-16.49-.08-28.16-11.63-31.22-27.42a59,59,0,0,1-1-11.17C543.86,548.83,543.38,156.09,543.38,156.09Z" transform="translate(-543.36 -106.01)"/></svg>