<svg id="Fingers" xmlns="http://www.w3.org/2000/svg" viewBox="0 0 392.33 539.26"><defs><style>.cls-1,.cls-4{fill:none;}.cls-1,.cls-2,.cls-3,.cls-4{stroke:#fff;stroke-miterlimit:10;}.cls-1{stroke-width:2px;}.cls-2,.cls-3,.cls-5{fill:#fff;}.cls-2{stroke-width:3px;}.cls-4{stroke-width:12px;}</style></defs><title>One_Finger_Rotate_Eng</title><g id="_1_Finger" data-name="1 Finger"><g id="Control_02" data-name="Control 02"><circle class="cls-1" cx="175.72" cy="112.48" r="32.53"/><path class="cls-2" d="M367,337.36a3.85,3.85,0,0,0,.66-.35c3.48-2.31,2.39-7.23,2.06-10.71-.62-6.36-1.08-12.73-1.7-19.09-3.4-34.69-9.24-69.09-13.06-103.73q-.69-6.3-1.35-12.6c-1.5-14.24-7.56-38.29,12.19-43,10.94-2.63,19.42,6.3,21.85,16.11,3.25,13.08,4.06,27,5.47,40.68,1.44,14,2.88,28,4.17,41.95.81,8.74,2.25,17.5,3.22,26.23,1,8.54,1.84,16.93,6.42,24.4,2.84,4.64,3.91-2.47,4.19-4.52,1-7.23.63-14.75.78-22.05.17-7.63.41-15.26.49-22.89.07-6.12-.18-12.88,3.23-18.26s8.58-8.42,14.86-8.42c9.86,0,16.28,5.47,17.92,15.06s-1.92,62.44,0,62.44c1.7,0,1.68-23.6,1.73-25.44.09-3.77.18-7.53.28-11.3.12-4.33-.33-9.27,1-13.42,2.37-7.56,9.62-9.34,17.13-9,9.2.37,15.1,10.15,15.48,19.21.27,6.57-1.22,49.8.43,49.8,1.48,0,1.34-21.66,1.45-24.1.3-6.32-.63-13.88,2.68-19.57,3.45-5.92,8.54-8,15-8,14,0,15.33,13.77,16.69,25.67,1.71,14.9,1.43,29.92,1.49,44.88a286.15,286.15,0,0,1-3.55,43.51c-3.56,23.46-8.16,46.84-23.45,65.27-24.13,29.09-64.89,34.16-98.47,19.93a117,117,0,0,1-34.64-22.51,118.83,118.83,0,0,1-24.52-32.94c-5.63-11.22-8.62-23.49-12.22-35.45s-8.67-23.67-13-35.53c-4.48-12.25-10.64-24.51-16.93-37.19-3.5-7.07-10.92-15.89-9.18-24.33,2-9.83,14.77-12.29,23.08-10.37,9.93,2.3,16.82,11.62,21.46,20.21,5.13,9.5,7.84,20,12,29.92,4.3,10.21,10.73,17.71,18.21,25.7C362.15,335.16,364.44,338.33,367,337.36Z" transform="translate(-194.13 -54.37)"/></g><g id="New_Arrow"><path class="cls-3" d="M268.9,334c-1.23.89-2.67,47.49-1.2,48.68s26.94-20.46,27-23.8S270.13,333.1,268.9,334Z" transform="translate(-194.13 -54.37)"/><path class="cls-4" d="M200.15,290.55c-.12,12.41.41,24.37,5.3,35.41a54.56,54.56,0,0,0,7.89,13,52.27,52.27,0,0,0,21.37,15,70.41,70.41,0,0,0,25.84,4.44c3.17,0,6.44,0,9.4-.14" transform="translate(-194.13 -54.37)"/></g><g id="New_Arrow-2" data-name="New_Arrow"><path class="cls-3" d="M384.82,103.61c1.2-.93,1.39-47.55-.11-48.7s-26.38,21.17-26.37,24.52S383.62,104.54,384.82,103.61Z" transform="translate(-194.13 -54.37)"/><path class="cls-4" d="M454.72,145.18c-.22-12.41-1.07-24.34-6.25-35.25a54.9,54.9,0,0,0-8.24-12.75,52.25,52.25,0,0,0-21.76-14.41,70.35,70.35,0,0,0-26-3.74c-3.16.11-6.44.17-9.39.39" transform="translate(-194.13 -54.37)"/></g></g><path class="cls-5" d="M230,488.09v25.34A14.65,14.65,0,0,1,228,521a12.69,12.69,0,0,1-5.61,5,20.09,20.09,0,0,1-8.68,1.74q-7.56,0-11.74-3.87t-4.18-10.59V488.09h8.28v24q0,4.53,1.82,6.64t6,2.12q4.08,0,5.91-2.13t1.83-6.69V488.09Z" transform="translate(-194.13 -54.37)"/><path class="cls-5" d="M259.82,518.36a8.22,8.22,0,0,1-3.21,7q-3.2,2.42-9.57,2.41a29.75,29.75,0,0,1-5.58-.44,21,21,0,0,1-4.31-1.3V519.3a28.76,28.76,0,0,0,5.13,1.8,20.87,20.87,0,0,0,5,.72q4.45,0,4.45-2.57a2.11,2.11,0,0,0-.59-1.57,8.59,8.59,0,0,0-2-1.37c-1-.5-2.25-1.1-3.86-1.78a23.51,23.51,0,0,1-5.08-2.68,7.63,7.63,0,0,1-2.36-2.82,9.38,9.38,0,0,1-.73-3.93,7.1,7.1,0,0,1,3.09-6.17q3.09-2.19,8.78-2.19a24.92,24.92,0,0,1,10.52,2.36L257,505c-1.5-.65-2.9-1.17-4.21-1.59a13.18,13.18,0,0,0-4-.61c-2.41,0-3.61.65-3.61,1.95a2.29,2.29,0,0,0,1.16,1.91,32.29,32.29,0,0,0,5.1,2.38,24,24,0,0,1,5.15,2.65,7.86,7.86,0,0,1,2.41,2.84A8.69,8.69,0,0,1,259.82,518.36Z" transform="translate(-194.13 -54.37)"/><path class="cls-5" d="M279.75,527.79c-4.83,0-8.59-1.33-11.31-4s-4.07-6.43-4.07-11.3,1.25-8.9,3.76-11.64,6-4.12,10.41-4.12q6.34,0,9.89,3.62t3.53,10v4H272.65a7.87,7.87,0,0,0,2.06,5.44,7.28,7.28,0,0,0,5.41,2,22.76,22.76,0,0,0,5.12-.56,25.3,25.3,0,0,0,5-1.8v6.33a19.23,19.23,0,0,1-4.58,1.59A28.67,28.67,0,0,1,279.75,527.79Zm-1.16-25.23a5.2,5.2,0,0,0-4.07,1.64,7.63,7.63,0,0,0-1.68,4.68H284.3a6.84,6.84,0,0,0-1.58-4.68A5.38,5.38,0,0,0,278.59,502.56Z" transform="translate(-194.13 -54.37)"/><path class="cls-5" d="M340.08,512.23q0,7.31-3.86,11.44t-10.74,4.12a15,15,0,0,1-7.61-1.89,12.42,12.42,0,0,1-5.06-5.42,18.22,18.22,0,0,1-1.77-8.25q0-7.34,3.83-11.41t10.77-4.08a15.15,15.15,0,0,1,7.61,1.88,12.54,12.54,0,0,1,5.06,5.38A18.08,18.08,0,0,1,340.08,512.23Zm-20.71,0c0,3,.49,5.21,1.46,6.72a5.21,5.21,0,0,0,4.75,2.28,5.15,5.15,0,0,0,4.71-2.26q1.43-2.26,1.43-6.74t-1.45-6.67a6.15,6.15,0,0,0-9.46,0Q319.37,507.76,319.37,512.23Z" transform="translate(-194.13 -54.37)"/><path class="cls-5" d="M374.47,527.26H366.3v-17.5a8.38,8.38,0,0,0-1.15-4.86,4.19,4.19,0,0,0-3.67-1.62,5.52,5.52,0,0,0-5,2.29q-1.51,2.3-1.52,7.6v14.09h-8.17V497.31h6.24l1.1,3.83h.45a8.61,8.61,0,0,1,3.77-3.28,12.67,12.67,0,0,1,5.45-1.12c3.48,0,6.12.95,7.93,2.83s2.7,4.6,2.7,8.16Z" transform="translate(-194.13 -54.37)"/><path class="cls-5" d="M396.44,527.79q-7.23,0-11.3-4t-4.08-11.3q0-7.53,3.77-11.64t10.41-4.12q6.35,0,9.88,3.62t3.54,10v4H389.34a7.91,7.91,0,0,0,2.06,5.44,7.28,7.28,0,0,0,5.42,2,22.67,22.67,0,0,0,5.11-.56,25.38,25.38,0,0,0,5-1.8v6.33a19.54,19.54,0,0,1-4.58,1.59A28.84,28.84,0,0,1,396.44,527.79Zm-1.15-25.23a5.2,5.2,0,0,0-4.07,1.64,7.58,7.58,0,0,0-1.69,4.68H401a6.89,6.89,0,0,0-1.58-4.68A5.39,5.39,0,0,0,395.29,502.56Z" transform="translate(-194.13 -54.37)"/><path class="cls-5" d="M446.11,503.44H439v23.82h-8.17V503.44h-4.5V499.5l4.5-2.19v-2.2q0-5.12,2.51-7.47c1.68-1.58,4.37-2.36,8.07-2.36a21,21,0,0,1,7.53,1.26l-2.09,6a15.21,15.21,0,0,0-4.56-.78,3,3,0,0,0-2.52,1,4.33,4.33,0,0,0-.77,2.64v1.88h7.07Zm4.34-13.87q0-4,4.45-4t4.44,4a3.91,3.91,0,0,1-1.11,3,4.68,4.68,0,0,1-3.33,1.05Q450.45,493.58,450.45,489.57ZM459,527.26H450.8V497.31H459Z" transform="translate(-194.13 -54.37)"/><path class="cls-5" d="M495.16,527.26H487v-17.5a8.38,8.38,0,0,0-1.15-4.86,4.19,4.19,0,0,0-3.67-1.62,5.52,5.52,0,0,0-5,2.29c-1,1.53-1.52,4.06-1.52,7.6v14.09h-8.18V497.31h6.25l1.1,3.83h.45a8.63,8.63,0,0,1,3.76-3.28,12.72,12.72,0,0,1,5.46-1.12c3.48,0,6.12.95,7.93,2.83s2.7,4.6,2.7,8.16Z" transform="translate(-194.13 -54.37)"/><path class="cls-5" d="M529.64,497.31v4.15l-4.69,1.2a8.16,8.16,0,0,1,1.29,4.51,9.06,9.06,0,0,1-3.37,7.51q-3.36,2.69-9.33,2.69l-1.48-.08-1.2-.13a2.72,2.72,0,0,0-1.26,2.14q0,1.77,4.5,1.77h5.09c3.29,0,5.79.71,7.52,2.12a7.56,7.56,0,0,1,2.58,6.21,9.2,9.2,0,0,1-4.38,8.14q-4.38,2.9-12.58,2.9-6.27,0-9.57-2.19a6.91,6.91,0,0,1-3.31-6.12,6.37,6.37,0,0,1,1.69-4.52,9.51,9.51,0,0,1,4.95-2.6,5.48,5.48,0,0,1-2.2-1.76,4.33,4.33,0,0,1,.06-5.44,11.55,11.55,0,0,1,2.86-2.23,8,8,0,0,1-3.73-3.27A10,10,0,0,1,501.7,507a9.36,9.36,0,0,1,3.19-7.58c2.12-1.78,5.16-2.68,9.1-2.68a23.7,23.7,0,0,1,3,.23c1.15.15,1.89.27,2.21.34Zm-23.12,34.18a3,3,0,0,0,1.62,2.65,8.83,8.83,0,0,0,4.54,1,16.15,16.15,0,0,0,6.89-1.21c1.66-.8,2.49-1.9,2.49-3.29a2.32,2.32,0,0,0-1.48-2.33,12,12,0,0,0-4.55-.65H511.8a6.47,6.47,0,0,0-3.77,1.06A3.27,3.27,0,0,0,506.52,531.49Zm3-24.38a6.05,6.05,0,0,0,1.12,3.86,4,4,0,0,0,3.38,1.42,4,4,0,0,0,3.38-1.42,6.29,6.29,0,0,0,1.07-3.86q0-5.42-4.45-5.41T509.49,507.11Z" transform="translate(-194.13 -54.37)"/><path class="cls-5" d="M548.12,527.79q-7.23,0-11.3-4t-4.07-11.3q0-7.53,3.76-11.64t10.41-4.12q6.35,0,9.88,3.62t3.54,10v4H541a7.87,7.87,0,0,0,2.07,5.44,7.26,7.26,0,0,0,5.41,2,22.83,22.83,0,0,0,5.12-.56,25.52,25.52,0,0,0,5-1.8v6.33a19.39,19.39,0,0,1-4.58,1.59A28.77,28.77,0,0,1,548.12,527.79ZM547,502.56a5.2,5.2,0,0,0-4.07,1.64,7.7,7.7,0,0,0-1.69,4.68h11.47a6.89,6.89,0,0,0-1.58-4.68A5.39,5.39,0,0,0,547,502.56Z" transform="translate(-194.13 -54.37)"/><path class="cls-5" d="M583.7,496.74a12.49,12.49,0,0,1,2.76.25l-.62,7.66a9.26,9.26,0,0,0-2.41-.27,8.64,8.64,0,0,0-6.09,2,7.24,7.24,0,0,0-2.19,5.62v15.25H567V497.31h6.19l1.21,5h.4a11.28,11.28,0,0,1,3.76-4.06A9.34,9.34,0,0,1,583.7,496.74Z" transform="translate(-194.13 -54.37)"/><path class="cls-5" d="M285.24,587.12a17.53,17.53,0,0,0,5.14-.94v6.09a18.32,18.32,0,0,1-7.5,1.36c-3.27,0-5.65-.82-7.14-2.48s-2.24-4.13-2.24-7.43V569.28h-3.91v-3.46l4.5-2.73,2.36-6.32h5.23v6.38h8.38v6.13h-8.38v14.44a3.18,3.18,0,0,0,1,2.57A3.91,3.91,0,0,0,285.24,587.12Z" transform="translate(-194.13 -54.37)"/><path class="cls-5" d="M323.65,578.07q0,7.3-3.85,11.44t-10.75,4.12a15,15,0,0,1-7.6-1.89,12.55,12.55,0,0,1-5.07-5.42,18.22,18.22,0,0,1-1.76-8.25q0-7.35,3.83-11.42t10.77-4.07a15.08,15.08,0,0,1,7.6,1.88,12.51,12.51,0,0,1,5.07,5.38A18,18,0,0,1,323.65,578.07Zm-20.7,0c0,3,.48,5.2,1.46,6.72a5.2,5.2,0,0,0,4.75,2.28,5.13,5.13,0,0,0,4.7-2.27q1.44-2.26,1.44-6.73c0-3-.49-5.19-1.45-6.67a6.15,6.15,0,0,0-9.46,0C303.43,572.86,303,575.08,303,578.07Z" transform="translate(-194.13 -54.37)"/><path class="cls-5" d="M361.37,562.58a13.21,13.21,0,0,1,2.76.24l-.61,7.67a9.31,9.31,0,0,0-2.41-.27,8.68,8.68,0,0,0-6.1,2,7.27,7.27,0,0,0-2.18,5.62V593.1h-8.17v-30h6.19l1.2,5h.4a11.31,11.31,0,0,1,3.77-4.06A9.33,9.33,0,0,1,361.37,562.58Z" transform="translate(-194.13 -54.37)"/><path class="cls-5" d="M396.79,578.07q0,7.3-3.86,11.44t-10.74,4.12a15,15,0,0,1-7.61-1.89,12.53,12.53,0,0,1-5.06-5.42,18.22,18.22,0,0,1-1.77-8.25q0-7.35,3.83-11.42t10.77-4.07a15.12,15.12,0,0,1,7.61,1.88,12.48,12.48,0,0,1,5.06,5.38A18,18,0,0,1,396.79,578.07Zm-20.71,0q0,4.44,1.46,6.72a5.23,5.23,0,0,0,4.76,2.28,5.14,5.14,0,0,0,4.7-2.27q1.42-2.26,1.43-6.73T387,571.4a6.15,6.15,0,0,0-9.46,0C376.56,572.86,376.08,575.08,376.08,578.07Z" transform="translate(-194.13 -54.37)"/><path class="cls-5" d="M416.16,587.12a17.53,17.53,0,0,0,5.14-.94v6.09a18.32,18.32,0,0,1-7.5,1.36c-3.27,0-5.65-.82-7.14-2.48s-2.23-4.13-2.23-7.43V569.28h-3.92v-3.46l4.5-2.73,2.36-6.32h5.23v6.38H421v6.13H412.6v14.44a3.18,3.18,0,0,0,1,2.57A3.91,3.91,0,0,0,416.16,587.12Z" transform="translate(-194.13 -54.37)"/><path class="cls-5" d="M446.38,593.1,444.8,589h-.22a12,12,0,0,1-4.24,3.61,13.77,13.77,0,0,1-5.7,1,9.22,9.22,0,0,1-6.79-2.46,9.5,9.5,0,0,1-2.48-7c0-3.18,1.12-5.53,3.34-7s5.58-2.35,10.06-2.51l5.2-.16v-1.31c0-3-1.56-4.56-4.66-4.56a21.32,21.32,0,0,0-8.44,2.17l-2.71-5.52a24.41,24.41,0,0,1,11.47-2.7q6,0,9.24,2.62c2.14,1.75,3.21,4.42,3.21,8v20ZM444,579.22l-3.16.11a10.18,10.18,0,0,0-5.31,1.28,4,4,0,0,0-1.74,3.59q0,3.46,4,3.46a6.29,6.29,0,0,0,4.54-1.64,5.75,5.75,0,0,0,1.7-4.34Z" transform="translate(-194.13 -54.37)"/><path class="cls-5" d="M473.11,587.12a17.59,17.59,0,0,0,5.15-.94v6.09a18.38,18.38,0,0,1-7.5,1.36c-3.27,0-5.65-.82-7.14-2.48s-2.24-4.13-2.24-7.43V569.28h-3.91v-3.46l4.5-2.73,2.36-6.32h5.22v6.38h8.39v6.13h-8.39v14.44a3.19,3.19,0,0,0,1,2.57A3.86,3.86,0,0,0,473.11,587.12Z" transform="translate(-194.13 -54.37)"/><path class="cls-5" d="M497.87,593.63c-4.83,0-8.59-1.33-11.31-4s-4.07-6.43-4.07-11.31,1.25-8.89,3.76-11.64,6-4.11,10.41-4.11q6.34,0,9.89,3.62t3.53,10v4H490.77a7.82,7.82,0,0,0,2.06,5.43,7.24,7.24,0,0,0,5.41,2,22.76,22.76,0,0,0,5.12-.56,26.26,26.26,0,0,0,5-1.8v6.32a19,19,0,0,1-4.59,1.6A28.67,28.67,0,0,1,497.87,593.63Zm-1.16-25.23a5.2,5.2,0,0,0-4.07,1.64,7.7,7.7,0,0,0-1.69,4.68h11.47a6.79,6.79,0,0,0-1.58-4.68A5.38,5.38,0,0,0,496.71,568.4Z" transform="translate(-194.13 -54.37)"/></svg>