<svg id="Layer_6" data-name="Layer 6" xmlns="http://www.w3.org/2000/svg" viewBox="0 0 404.32 404.32"><defs><style>.cls-1{fill:none;stroke:#fff;stroke-miterlimit:10;stroke-width:15px;}.cls-2{fill:#fff;}</style></defs><title>Home01</title><g id="Control_04" data-name="Control 04"><circle id="Circle2" class="cls-1" cx="202.16" cy="202.16" r="194.66"/></g><g id="Home_Icon" data-name="Home Icon"><rect class="cls-2" x="437.14" y="160.85" width="28.87" height="163.81" rx="1.26" ry="1.26" transform="translate(-219.62 346.96) rotate(-50.49)"/><rect class="cls-2" x="251.44" y="99.54" width="34.37" height="69.74" rx="1.26" ry="1.26"/><rect class="cls-2" x="329.13" y="161.06" width="28.87" height="163.81" rx="1.26" ry="1.26" transform="translate(178.12 572.87) rotate(-129.51)"/><rect class="cls-2" x="116.25" y="211.76" width="64.65" height="77.31" rx="1.13" ry="1.13"/><rect class="cls-2" x="221.3" y="211.29" width="65.32" height="77.78" rx="1.13" ry="1.13"/><path class="cls-2" d="M319.73,310a6.86,6.86,0,0,1-4.64-11.95c24.41-22,74.62-66.45,81.78-66.45s58.81,43.84,84,65.6a6.87,6.87,0,0,1-4.46,12.06Z" transform="translate(-196.6 -89.73)"/><rect class="cls-2" x="170.21" y="219.64" width="61.85" height="12.08" rx="0.64" ry="0.64"/></g></svg>