<svg id="Text_Icons" xmlns="http://www.w3.org/2000/svg" viewBox="0 0 404.32 404.32"><defs><style>.cls-1{fill:none;stroke:#fff;stroke-miterlimit:10;stroke-width:15px;}.cls-2{fill:#fff;}</style></defs><title>Map</title><g id="Circle"><circle id="Circle2" class="cls-1" cx="202.16" cy="202.16" r="194.66"/></g><g id="Map"><path class="cls-2" d="M307.12,260.32a14.91,14.91,0,0,0-9.37,13.84V390.7A7.44,7.44,0,0,0,308,397.61l64.28-29.25V259.84a140.28,140.28,0,0,1-9.89-21.61Z" transform="translate(-227.66 -85.29)"/><path class="cls-2" d="M431.83,327.23a22.25,22.25,0,0,1-17-7.89c-9.15-10.8-18.88-23.1-27.69-35.72v84.73l89.39,29.8V283.63c-8.81,12.61-18.54,24.91-27.7,35.71A22.24,22.24,0,0,1,431.83,327.23Z" transform="translate(-227.66 -85.29)"/><path class="cls-2" d="M555.7,234.82l-64.27,29.25V398.15l65.12-26a14.91,14.91,0,0,0,9.37-13.84V241.73A7.45,7.45,0,0,0,555.7,234.82Z" transform="translate(-227.66 -85.29)"/></g><g id="Marker"><path class="cls-2" d="M424.76,308.08c-51-73.9-60.43-81.48-60.43-108.64a67.36,67.36,0,1,1,134.71,0c0,27.16-9.46,34.74-60.43,108.64a8.43,8.43,0,0,1-13.85,0Zm6.92-80.57a28.07,28.07,0,1,0-28.06-28.07A28.07,28.07,0,0,0,431.68,227.51Z" transform="translate(-227.66 -85.29)"/></g></svg>