<svg xmlns="http://www.w3.org/2000/svg" viewBox="0 0 485.95 485.95"><defs><style>.cls-1,.cls-3{fill:none;}.cls-1,.cls-3,.cls-4{stroke:#fff;stroke-miterlimit:10;}.cls-1{stroke-width:15px;}.cls-2{font-size:69.73px;font-family:OpenSans-Bold, Open Sans;font-weight:700;}.cls-2,.cls-4{fill:#fff;}.cls-3{stroke-width:2px;}.cls-4{stroke-width:3px;}</style></defs><title>OneFinger_3D</title><g id="Layer_6" data-name="Layer 6"><g id="Control_04" data-name="Control 04"><circle id="Circle2" class="cls-1" cx="242.97" cy="242.97" r="235.47"/></g><text class="cls-2" transform="translate(272.13 148.18)">3D</text></g><g id="Fingers"><g id="_1_Finger" data-name="1 Finger"><g id="Control_02" data-name="Control 02"><circle class="cls-3" cx="167.96" cy="133.41" r="32.53"/><path class="cls-4" d="M371.25,336.65a3.52,3.52,0,0,0,.66-.35c3.49-2.31,2.4-7.23,2.07-10.71-.62-6.36-1.08-12.73-1.7-19.09-3.4-34.69-9.24-69.09-13.06-103.73q-.69-6.3-1.35-12.6c-1.5-14.24-7.56-38.29,12.19-43,10.94-2.63,19.42,6.3,21.85,16.11,3.25,13.08,4.06,27,5.47,40.68,1.43,14,2.88,28,4.17,42,.8,8.74,2.25,17.5,3.22,26.23,1,8.54,1.84,16.93,6.42,24.4,2.84,4.64,3.91-2.47,4.19-4.52,1-7.23.62-14.75.78-22.05.16-7.63.41-15.26.49-22.89.07-6.12-.18-12.88,3.23-18.26s8.58-8.42,14.85-8.42c9.86,0,16.28,5.47,17.93,15.06s-1.92,62.44,0,62.44c1.69,0,1.68-23.6,1.72-25.44.1-3.77.18-7.53.29-11.3.12-4.33-.34-9.27,1-13.42,2.37-7.56,9.63-9.34,17.14-9,9.2.37,15.1,10.15,15.47,19.21.28,6.57-1.21,49.8.43,49.8,1.49,0,1.35-21.66,1.46-24.1.29-6.32-.64-13.88,2.68-19.57,3.44-5.92,8.53-8.05,15-8.05,14.05,0,15.34,13.77,16.7,25.67,1.7,14.9,1.43,29.92,1.48,44.88A286.37,286.37,0,0,1,522.43,370c-3.57,23.45-8.17,46.83-23.45,65.26-24.13,29.1-64.9,34.16-98.47,19.93a117,117,0,0,1-34.64-22.51,118.83,118.83,0,0,1-24.52-32.94c-5.64-11.22-8.63-23.48-12.22-35.45s-8.67-23.67-13-35.53c-4.48-12.25-10.65-24.51-16.93-37.19-3.51-7.07-10.92-15.89-9.19-24.33,2-9.83,14.78-12.29,23.08-10.37,9.94,2.3,16.83,11.62,21.47,20.21,5.12,9.5,7.84,20,12,29.92,4.31,10.21,10.74,17.71,18.22,25.7C366.41,334.45,368.7,337.62,371.25,336.65Z" transform="translate(-206.15 -32.73)"/></g></g></g></svg>