<svg id="Layer_6" data-name="Layer 6" xmlns="http://www.w3.org/2000/svg" viewBox="0 0 404.32 404.32"><defs><style>.cls-1{fill:none;stroke:#fff;stroke-miterlimit:10;stroke-width:15px;}.cls-2{fill:#fff;}</style></defs><title>Question_Mark</title><g id="Control_04" data-name="Control 04"><circle id="Circle2" class="cls-1" cx="202.16" cy="202.16" r="194.66"/></g><g id="QuestionMark"><path class="cls-2" d="M300.3,240.33h50.56c.08,0,3.08-10.26,3.47-11.22a48.54,48.54,0,0,1,5.94-10.77c4.78-6.4,12.11-10.41,19.68-12.62,14.79-4.32,31.66-4,44.3,5.78,14.62,11.32,13.54,33.53,4,47.76-4,5.93-10.13,9.84-15.7,14.15-7.52,5.81-15.29,11.63-22.5,17.95s-13.94,12.86-18.42,21.32A75.14,75.14,0,0,0,364.56,333a63.68,63.68,0,0,0-1,6.72,16.69,16.69,0,0,1-.06,2.49q13.75.12,27.53.17c6.59,0,13.2.14,19.78-.14-.25,0,2.11-10.65,2.44-11.6a36.29,36.29,0,0,1,5.11-10c4.52-6.07,10.82-10.5,16.87-14.92,6.75-4.94,13.29-10.12,19.87-15.27,5.73-4.48,11.62-8.67,16.33-14.27a62.25,62.25,0,0,0,7.17-10.38c8.35-15.23,9-32.09,5.13-48.73a63,63,0,0,0-11.4-24.68C462.45,179.7,447,171.24,431.67,167c-19.23-5.28-40.67-6.65-60.31-3A94.07,94.07,0,0,0,361,166.6,89.37,89.37,0,0,0,322.58,190c-12.34,12.92-17.45,30.59-21.6,47.5A28.09,28.09,0,0,1,300.3,240.33Z" transform="translate(-194.6 -91.23)"/><rect class="cls-2" x="167.31" y="278.67" width="51.88" height="47.8"/></g></svg>