<svg xmlns="http://www.w3.org/2000/svg" viewBox="0 0 404.32 404.32"><defs><style>.cls-1{fill:none;stroke:#fff;stroke-miterlimit:10;stroke-width:15px;}.cls-2{fill:#fff;}</style></defs><title>1916_Barcaza</title><g id="Layer_6" data-name="Layer 6"><g id="Control_04" data-name="Control 04"><circle id="Circle2" class="cls-1" cx="202.16" cy="202.16" r="194.66"/></g></g><g id="Fingers"><path class="cls-2" d="M370.59,265.38H362V231c0-4.11.1-7.36.29-9.77a27.13,27.13,0,0,1-2.06,1.93q-1.22,1.06-8.18,6.71l-4.3-5.43,15.67-12.32h7.15Z" transform="translate(-227.66 -85.29)"/><path class="cls-2" d="M424.1,234.84q0,15.74-6.34,23.51t-19.1,7.76a29.17,29.17,0,0,1-7-.58v-7.18a24,24,0,0,0,6.53.91q8.67,0,12.94-4.67t4.67-14.65h-.44a12.93,12.93,0,0,1-5.2,4.74,16.34,16.34,0,0,1-7.12,1.46q-7.08,0-11.12-4.41t-4.05-12.11q0-8.34,4.69-13.28t12.77-4.94a17,17,0,0,1,16.44,10.8A31.57,31.57,0,0,1,424.1,234.84ZM405.51,218.5a8.31,8.31,0,0,0-6.82,2.9q-2.37,2.9-2.37,8.15a10.72,10.72,0,0,0,2.21,7.16q2.21,2.61,6.69,2.61a10.65,10.65,0,0,0,7.29-2.59,7.81,7.81,0,0,0,2.95-6,14.73,14.73,0,0,0-1.26-6.07,10.88,10.88,0,0,0-3.52-4.47A8.59,8.59,0,0,0,405.51,218.5Z" transform="translate(-227.66 -85.29)"/><path class="cls-2" d="M455.81,265.38h-8.56V231c0-4.11.09-7.36.29-9.77-.56.59-1.25,1.23-2.06,1.93s-3.54,2.94-8.18,6.71l-4.3-5.43,15.67-12.32h7.14Z" transform="translate(-227.66 -85.29)"/><path class="cls-2" d="M473.42,242.67q0-31.28,25.48-31.27a31.21,31.21,0,0,1,6.78.62v7.14a23.3,23.3,0,0,0-6.41-.8c-5.72,0-10,1.53-12.87,4.59s-4.43,8-4.67,14.73h.44A11.8,11.8,0,0,1,487,233.1a15.55,15.55,0,0,1,7.29-1.62q7.26,0,11.3,4.45T509.62,248q0,8.37-4.69,13.25t-12.77,4.86a17.75,17.75,0,0,1-10-2.75,17.57,17.57,0,0,1-6.51-8A31.77,31.77,0,0,1,473.42,242.67ZM492,259a8.4,8.4,0,0,0,6.8-2.84q2.38-2.85,2.39-8.13a10.79,10.79,0,0,0-2.24-7.22q-2.25-2.62-6.73-2.62a11.06,11.06,0,0,0-5.1,1.18,9.29,9.29,0,0,0-3.68,3.24,7.63,7.63,0,0,0-1.35,4.22,13.48,13.48,0,0,0,2.79,8.65A8.67,8.67,0,0,0,492,259Z" transform="translate(-227.66 -85.29)"/><path class="cls-2" d="M266.75,283.22h15.82q11,0,15.91,3.21t4.9,10.14a12.3,12.3,0,0,1-2.4,7.76,10.7,10.7,0,0,1-6.93,3.9v.37q5.61,1,8.26,4.17t2.64,8.44q0,7.19-5,11.24T286,336.52H266.75Zm8.71,22h8.39c3.64,0,6.3-.57,8-1.73s2.51-3.12,2.51-5.89a5.9,5.9,0,0,0-2.71-5.43c-1.81-1.12-4.69-1.68-8.62-1.68h-7.55Zm0,7.07v16.88h9.26q5.47,0,8.26-2.09t2.79-6.62a7,7,0,0,0-2.85-6.16q-2.84-2-8.64-2Z" transform="translate(-227.66 -85.29)"/><path class="cls-2" d="M349.1,336.52l-5.33-14.8H323.4l-5.22,14.8H309L328.94,283h9.48l19.94,53.52Zm-7.62-22.31-5-14.51q-.54-1.45-1.51-4.59c-.64-2.09-1.09-3.62-1.33-4.6a83.22,83.22,0,0,1-2.88,9.81L326,314.21Z" transform="translate(-227.66 -85.29)"/><path class="cls-2" d="M374.1,315.23v21.29h-8.71v-53.3h15.06q10.31,0,15.27,3.87t5,11.66q0,10-10.35,14.18l15.05,23.59h-9.91l-12.76-21.29Zm0-7.22h6.06q6.07,0,8.82-2.26t2.73-6.71q0-4.52-2.95-6.48c-2-1.32-4.94-2-8.9-2H374.1Z" transform="translate(-227.66 -85.29)"/><path class="cls-2" d="M435.78,289.93q-7.5,0-11.81,5.32t-4.3,14.69q0,9.81,4.14,14.84t12,5a31.56,31.56,0,0,0,6.57-.67q3.16-.67,6.59-1.73v7.47a40,40,0,0,1-14.21,2.37q-11.7,0-18-7.09t-6.26-20.29a32.73,32.73,0,0,1,3-14.54,21.69,21.69,0,0,1,8.8-9.55,26.56,26.56,0,0,1,13.53-3.32A33.63,33.63,0,0,1,451,285.88l-3.14,7.26a46.59,46.59,0,0,0-5.7-2.24A20.4,20.4,0,0,0,435.78,289.93Z" transform="translate(-227.66 -85.29)"/><path class="cls-2" d="M493.49,336.52l-5.32-14.8H467.79l-5.21,14.8h-9.19L473.33,283h9.48l19.94,53.52Zm-7.62-22.31-5-14.51c-.37-1-.87-2.5-1.52-4.59s-1.08-3.62-1.33-4.6a79.57,79.57,0,0,1-2.88,9.81l-4.81,13.89Z" transform="translate(-227.66 -85.29)"/><path class="cls-2" d="M543.28,336.52H505.15v-6L532,290.7H505.88v-7.48h36.67v6.13l-27,39.7h27.7Z" transform="translate(-227.66 -85.29)"/><path class="cls-2" d="M585.79,336.52l-5.32-14.8H560.09l-5.21,14.8h-9.19L565.63,283h9.48l19.94,53.52Zm-7.62-22.31-5-14.51c-.37-1-.87-2.5-1.52-4.59s-1.08-3.62-1.33-4.6a79.57,79.57,0,0,1-2.88,9.81l-4.81,13.89Z" transform="translate(-227.66 -85.29)"/></g></svg>