<svg id="Layer_9" data-name="Layer 9" xmlns="http://www.w3.org/2000/svg" viewBox="0 0 404.32 404.32"><defs><style>.cls-1{fill:none;stroke:#fff;stroke-miterlimit:10;stroke-width:15px;}.cls-2{fill:#fff;}</style></defs><title>1916_Herma</title><g id="Circle"><circle id="Circle2" class="cls-1" cx="202.16" cy="202.16" r="194.66"/></g><g id="_1916_HERMA" data-name="1916 HERMA"><path class="cls-2" d="M360.57,269H350.5V228.59q0-7.25.34-11.48c-.66.68-1.46,1.44-2.42,2.27s-4.16,3.45-9.62,7.88l-5.06-6.38,18.43-14.49h8.4Z" transform="translate(-227.66 -85.29)"/><path class="cls-2" d="M423.48,233.13q0,18.51-7.46,27.64t-22.46,9.13a34.09,34.09,0,0,1-8.18-.69v-8.44a28,28,0,0,0,7.67,1.07q10.2,0,15.21-5.48t5.49-17.23h-.52a15.15,15.15,0,0,1-6.1,5.57,19.12,19.12,0,0,1-8.38,1.72q-8.31,0-13.07-5.19T380.92,227q0-9.81,5.51-15.61t15-5.81a20,20,0,0,1,19.33,12.7A37,37,0,0,1,423.48,233.13Zm-21.86-19.19c-3.48,0-6.16,1.13-8,3.4s-2.79,5.47-2.79,9.58q0,5.36,2.6,8.42t7.86,3.06a12.52,12.52,0,0,0,8.57-3,9.22,9.22,0,0,0,3.47-7.11,17.33,17.33,0,0,0-1.48-7.14,12.72,12.72,0,0,0-4.13-5.25A10.15,10.15,0,0,0,401.62,213.94Z" transform="translate(-227.66 -85.29)"/><path class="cls-2" d="M460.76,269H450.69V228.59q0-7.25.34-11.48c-.66.68-1.47,1.44-2.42,2.27s-4.17,3.45-9.62,7.88l-5.06-6.38,18.43-14.49h8.4Z" transform="translate(-227.66 -85.29)"/><path class="cls-2" d="M481.46,242.35q0-36.78,30-36.77a36.87,36.87,0,0,1,8,.73v8.4a27.15,27.15,0,0,0-7.54-1q-10.08,0-15.13,5.4t-5.48,17.32h.51a13.73,13.73,0,0,1,5.66-5.38,18.21,18.21,0,0,1,8.57-1.91q8.52,0,13.28,5.23T524,248.6q0,9.85-5.51,15.58t-15,5.72a21,21,0,0,1-11.7-3.24,20.65,20.65,0,0,1-7.65-9.42A37.49,37.49,0,0,1,481.46,242.35Zm21.85,19.24q5.19,0,8-3.35t2.81-9.55q0-5.4-2.64-8.49c-1.75-2-4.39-3.08-7.9-3.08a13,13,0,0,0-6,1.39,11.07,11.07,0,0,0-4.33,3.81,9,9,0,0,0-1.59,5,15.91,15.91,0,0,0,3.28,10.18A10.24,10.24,0,0,0,503.31,261.59Z" transform="translate(-227.66 -85.29)"/><path class="cls-2" d="M330,351.89H319.73V323.65H290.85v28.24H280.61V289.24h10.24v25.62h28.88V289.24H330Z" transform="translate(-227.66 -85.29)"/><path class="cls-2" d="M382,351.89H346.51V289.24H382v8.65h-25.2V315h23.62v8.57H356.75v19.67H382Z" transform="translate(-227.66 -85.29)"/><path class="cls-2" d="M405.73,326.86v25H395.49V289.24h17.7q12.13,0,18,4.54T437,307.49q0,11.7-12.17,16.67l17.7,27.73H430.85l-15-25Zm0-8.48h7.12q7.15,0,10.37-2.66t3.21-7.89c0-3.54-1.15-6.08-3.47-7.62s-5.8-2.32-10.45-2.32h-6.78Z" transform="translate(-227.66 -85.29)"/><path class="cls-2" d="M478.67,351.89,460.5,299.56h-.34q.72,11.67.72,21.86v30.47h-9.29V289.24H466l17.39,49.83h.26l17.91-49.83h14.49v62.65h-9.86v-31q0-4.66.24-12.17t.41-9.08h-.35l-18.81,52.24Z" transform="translate(-227.66 -85.29)"/><path class="cls-2" d="M571.44,351.89l-6.25-17.4h-24l-6.12,17.4h-10.8L547.75,289h11.14l23.44,62.91Zm-9-26.23-5.87-17.05q-.64-1.73-1.78-5.4t-1.57-5.4a96.8,96.8,0,0,1-3.38,11.52l-5.66,16.33Z" transform="translate(-227.66 -85.29)"/></g></svg>