<svg id="Layer_9" data-name="Layer 9" xmlns="http://www.w3.org/2000/svg" viewBox="0 0 404.32 404.32"><defs><style>.cls-1{fill:none;stroke:#fff;stroke-miterlimit:10;stroke-width:15px;}.cls-2{fill:#fff;}</style></defs><title>2017_Herma</title><g id="Circle"><circle id="Circle2" class="cls-1" cx="202.16" cy="202.16" r="194.66"/></g><g id="_2017_HERMA" data-name="2017 HERMA"><path class="cls-2" d="M373.47,269H331v-7.62l16.16-16.25a135.74,135.74,0,0,0,9.49-10.39,24.79,24.79,0,0,0,3.4-5.76,15.44,15.44,0,0,0,1.08-5.79,8.82,8.82,0,0,0-2.55-6.68,9.76,9.76,0,0,0-7.05-2.44,18.77,18.77,0,0,0-7,1.33,32.44,32.44,0,0,0-7.77,4.79l-5.45-6.64a35,35,0,0,1,10.16-6.25,29.66,29.66,0,0,1,10.5-1.85q8.75,0,14,4.57t5.27,12.27a21.63,21.63,0,0,1-1.52,8.06,32.63,32.63,0,0,1-4.67,7.86,106.33,106.33,0,0,1-10.48,10.95l-10.88,10.54v.43h29.74Z" transform="translate(-227.66 -85.29)"/><path class="cls-2" d="M423.56,237.72q0,16.32-5.25,24.25t-16.05,7.93q-10.45,0-15.85-8.18t-5.4-24q0-16.59,5.25-24.45t16-7.86q10.5,0,15.9,8.23T423.56,237.72Zm-32.35,0q0,12.81,2.63,18.3t8.42,5.48q5.79,0,8.47-5.57t2.68-18.21q0-12.6-2.68-18.24t-8.47-5.63q-5.77,0-8.42,5.53T391.21,237.72Z" transform="translate(-227.66 -85.29)"/><path class="cls-2" d="M460.76,269H450.69V228.59q0-7.25.34-11.48c-.66.68-1.47,1.44-2.42,2.27s-4.17,3.45-9.62,7.88l-5.06-6.38,18.43-14.49h8.4Z" transform="translate(-227.66 -85.29)"/><path class="cls-2" d="M488.4,269l24.77-53.69H480.6v-8.87h43.32v7L499.28,269Z" transform="translate(-227.66 -85.29)"/><path class="cls-2" d="M330,351.89H319.73V323.65H290.85v28.24H280.61V289.24h10.24v25.62h28.88V289.24H330Z" transform="translate(-227.66 -85.29)"/><path class="cls-2" d="M382,351.89H346.51V289.24H382v8.65h-25.2V315h23.62v8.57H356.75v19.67H382Z" transform="translate(-227.66 -85.29)"/><path class="cls-2" d="M405.73,326.86v25H395.49V289.24h17.7q12.13,0,18,4.54T437,307.49q0,11.7-12.17,16.67l17.7,27.73H430.85l-15-25Zm0-8.48h7.12q7.15,0,10.37-2.66t3.21-7.89c0-3.54-1.15-6.08-3.47-7.62s-5.8-2.32-10.45-2.32h-6.78Z" transform="translate(-227.66 -85.29)"/><path class="cls-2" d="M478.67,351.89,460.5,299.56h-.34q.72,11.67.72,21.86v30.47h-9.29V289.24H466l17.39,49.83h.26l17.91-49.83h14.49v62.65h-9.86v-31q0-4.66.24-12.17t.41-9.08h-.35l-18.81,52.24Z" transform="translate(-227.66 -85.29)"/><path class="cls-2" d="M571.44,351.89l-6.25-17.4h-24l-6.12,17.4h-10.8L547.75,289h11.14l23.44,62.91Zm-9-26.23-5.87-17.05q-.64-1.73-1.78-5.4t-1.57-5.4a96.8,96.8,0,0,1-3.38,11.52l-5.66,16.33Z" transform="translate(-227.66 -85.29)"/></g></svg>