<svg xmlns="http://www.w3.org/2000/svg" viewBox="0 0 404.32 404.32"><defs><style>.cls-1{fill:none;stroke:#fff;stroke-miterlimit:10;stroke-width:15px;}.cls-2{fill:#fff;}</style></defs><title>2017_Barcaza</title><g id="Layer_6" data-name="Layer 6"><g id="Control_04" data-name="Control 04"><circle id="Circle2" class="cls-1" cx="202.16" cy="202.16" r="194.66"/></g></g><g id="Fingers"><path class="cls-2" d="M381.56,265.38H345.43v-6.49l13.75-13.81a117.83,117.83,0,0,0,8.07-8.84,21.07,21.07,0,0,0,2.9-4.9,13.25,13.25,0,0,0,.91-4.93,7.47,7.47,0,0,0-2.17-5.68,8.28,8.28,0,0,0-6-2.08,16.05,16.05,0,0,0-5.92,1.13,27.65,27.65,0,0,0-6.62,4.08l-4.62-5.65a30,30,0,0,1,8.63-5.32,25.47,25.47,0,0,1,8.94-1.57q7.43,0,11.92,3.89a13.08,13.08,0,0,1,4.48,10.44,18.33,18.33,0,0,1-1.29,6.85,27.75,27.75,0,0,1-4,6.69,89.87,89.87,0,0,1-8.91,9.32l-9.26,9v.37h25.3Z" transform="translate(-227.66 -85.29)"/><path class="cls-2" d="M424.17,238.74q0,13.89-4.46,20.63t-13.65,6.74q-8.9,0-13.49-7T388,238.74q0-14.12,4.47-20.8t13.62-6.69q8.93,0,13.52,7T424.17,238.74Zm-27.52,0q0,10.89,2.24,15.56a7.83,7.83,0,0,0,14.36-.07q2.28-4.74,2.28-15.49t-2.28-15.51q-2.26-4.8-7.19-4.8a7.48,7.48,0,0,0-7.17,4.7Q396.66,227.84,396.65,238.74Z" transform="translate(-227.66 -85.29)"/><path class="cls-2" d="M455.81,265.38h-8.56V231c0-4.11.09-7.36.29-9.77-.56.59-1.25,1.23-2.06,1.93s-3.54,2.94-8.18,6.71l-4.3-5.43,15.67-12.32h7.14Z" transform="translate(-227.66 -85.29)"/><path class="cls-2" d="M479.33,265.38l21.07-45.67H472.69v-7.55h36.86v6l-21,47.24Z" transform="translate(-227.66 -85.29)"/><path class="cls-2" d="M266.75,283.22h15.82q11,0,15.91,3.21t4.9,10.14a12.3,12.3,0,0,1-2.4,7.76,10.7,10.7,0,0,1-6.93,3.9v.37q5.61,1,8.26,4.17t2.64,8.44q0,7.19-5,11.24T286,336.52H266.75Zm8.71,22h8.39c3.64,0,6.3-.57,8-1.73s2.51-3.12,2.51-5.89a5.9,5.9,0,0,0-2.71-5.43c-1.81-1.12-4.69-1.68-8.62-1.68h-7.55Zm0,7.07v16.88h9.26q5.47,0,8.26-2.09t2.79-6.62a7,7,0,0,0-2.85-6.16q-2.84-2-8.64-2Z" transform="translate(-227.66 -85.29)"/><path class="cls-2" d="M349.1,336.52l-5.33-14.8H323.4l-5.22,14.8H309L328.94,283h9.48l19.94,53.52Zm-7.62-22.31-5-14.51q-.54-1.45-1.51-4.59c-.64-2.09-1.09-3.62-1.33-4.6a83.22,83.22,0,0,1-2.88,9.81L326,314.21Z" transform="translate(-227.66 -85.29)"/><path class="cls-2" d="M374.1,315.23v21.29h-8.71v-53.3h15.06q10.31,0,15.27,3.87t5,11.66q0,10-10.35,14.18l15.05,23.59h-9.91l-12.76-21.29Zm0-7.22h6.06q6.07,0,8.82-2.26t2.73-6.71q0-4.52-2.95-6.48c-2-1.32-4.94-2-8.9-2H374.1Z" transform="translate(-227.66 -85.29)"/><path class="cls-2" d="M435.78,289.93q-7.5,0-11.81,5.32t-4.3,14.69q0,9.81,4.14,14.84t12,5a31.56,31.56,0,0,0,6.57-.67q3.16-.67,6.59-1.73v7.47a40,40,0,0,1-14.21,2.37q-11.7,0-18-7.09t-6.26-20.29a32.73,32.73,0,0,1,3-14.54,21.69,21.69,0,0,1,8.8-9.55,26.56,26.56,0,0,1,13.53-3.32A33.63,33.63,0,0,1,451,285.88l-3.14,7.26a46.59,46.59,0,0,0-5.7-2.24A20.4,20.4,0,0,0,435.78,289.93Z" transform="translate(-227.66 -85.29)"/><path class="cls-2" d="M493.49,336.52l-5.32-14.8H467.79l-5.21,14.8h-9.19L473.33,283h9.48l19.94,53.52Zm-7.62-22.31-5-14.51c-.37-1-.87-2.5-1.52-4.59s-1.08-3.62-1.33-4.6a79.57,79.57,0,0,1-2.88,9.81l-4.81,13.89Z" transform="translate(-227.66 -85.29)"/><path class="cls-2" d="M543.28,336.52H505.15v-6L532,290.7H505.88v-7.48h36.67v6.13l-27,39.7h27.7Z" transform="translate(-227.66 -85.29)"/><path class="cls-2" d="M585.79,336.52l-5.32-14.8H560.09l-5.21,14.8h-9.19L565.63,283h9.48l19.94,53.52Zm-7.62-22.31-5-14.51c-.37-1-.87-2.5-1.52-4.59s-1.08-3.62-1.33-4.6a79.57,79.57,0,0,1-2.88,9.81l-4.81,13.89Z" transform="translate(-227.66 -85.29)"/></g></svg>