<svg id="Layer_6" data-name="Layer 6" xmlns="http://www.w3.org/2000/svg" viewBox="0 0 404.32 404.32"><defs><style>.cls-1{fill:none;stroke-width:15px;}.cls-1,.cls-2{stroke:#fff;stroke-miterlimit:10;}.cls-2{fill:#fff;stroke-width:4px;}</style></defs><title>Control_Icon</title><g id="Control_04" data-name="Control 04"><circle id="Circle2" class="cls-1" cx="202.16" cy="202.16" r="194.66"/><g id="Arrow2"><rect class="cls-2" x="362.12" y="210.73" width="62.21" height="23.62" rx="1.05" ry="1.05" transform="translate(421.18 -261.91) rotate(90)"/><path class="cls-2" d="M347.82,189.07c1.74,2.27,89.82,2.82,92,0s-39.89-49.93-46.22-49.93S346.07,186.79,347.82,189.07Z" transform="translate(-194.6 -91.23)"/></g><g id="Arrow2-2" data-name="Arrow2"><rect class="cls-2" x="362.02" y="349.21" width="62.41" height="23.62" rx="1.05" ry="1.05" transform="translate(-162.39 663.03) rotate(-90)"/><path class="cls-2" d="M347.82,394.41c1.74-2.28,89.82-2.83,92,0s-39.89,49.92-46.22,49.92S346.07,396.68,347.82,394.41Z" transform="translate(-194.6 -91.23)"/></g><g id="Arrow2-3" data-name="Arrow2"><rect class="cls-2" x="99.99" y="190.34" width="62.21" height="23.62" rx="1.05" ry="1.05"/><path class="cls-2" d="M292.21,338.8c2.27-1.75,2.82-89.82,0-92S242.28,286.69,242.28,293,289.94,340.55,292.21,338.8Z" transform="translate(-194.6 -91.23)"/></g><g id="Arrow2-4" data-name="Arrow2"><rect class="cls-2" x="432.96" y="281.57" width="62.41" height="23.62" rx="1.05" ry="1.05" transform="translate(733.74 495.54) rotate(180)"/><path class="cls-2" d="M497.55,338.8c-2.27-1.75-2.83-89.82,0-92s49.93,39.88,49.93,46.21S499.82,340.55,497.55,338.8Z" transform="translate(-194.6 -91.23)"/></g></g></svg>