<svg id="Layer_2" data-name="Layer 2" xmlns="http://www.w3.org/2000/svg" viewBox="0 0 311.36 549.78"><defs><style>.cls-1{fill:#fff;}</style></defs><title>Arrow_Triangle_L</title><path class="cls-1" d="M799.6,605.72s1.43,35.33-18,45.84c-19.71,10.67-38.41-.59-53.07-14.2-17.76-16.48-34.3-34.49-51.37-51.7Q640,548.21,602.79,510.83q-34.83-35-69.7-70c-5.5-5.52-11.24-10.89-16.55-16.61-13.95-15-34-29-26.72-52.24,6.05-19.27,23.53-33.48,37.67-46.86,2.08-2,4.15-3.94,6.16-6q31.82-32.07,63.84-63.93,34.63-34.53,69.38-69,25.13-24.88,50.37-49.64c14.26-13.92,28-30.71,49.67-30.61,16.49.08,28.15,11.63,31.21,27.42a59,59,0,0,1,1,11.17C799.12,213,799.6,605.72,799.6,605.72Z" transform="translate(-488.27 -106.01)"/></svg>