<svg id="Fingers" xmlns="http://www.w3.org/2000/svg" viewBox="0 0 365.73 551.26"><defs><style>.cls-1,.cls-4{fill:none;}.cls-1,.cls-2,.cls-3,.cls-4{stroke:#fff;stroke-miterlimit:10;}.cls-1{stroke-width:2px;}.cls-2,.cls-3,.cls-5{fill:#fff;}.cls-2{stroke-width:3px;}.cls-4{stroke-width:12px;}</style></defs><title>One_Finger_Rotate_Spa</title><g id="_1_Finger" data-name="1 Finger"><g id="Control_02" data-name="Control 02"><circle class="cls-1" cx="175.72" cy="112.48" r="32.53"/><path class="cls-2" d="M367,337.36a3.85,3.85,0,0,0,.66-.35c3.48-2.31,2.39-7.23,2.06-10.71-.62-6.36-1.08-12.73-1.7-19.09-3.4-34.69-9.24-69.09-13.06-103.73q-.69-6.3-1.35-12.6c-1.5-14.24-7.56-38.29,12.19-43,10.94-2.63,19.42,6.3,21.85,16.11,3.25,13.08,4.06,27,5.47,40.68,1.44,14,2.88,28,4.17,41.95.81,8.74,2.25,17.5,3.22,26.23,1,8.54,1.84,16.93,6.42,24.4,2.84,4.64,3.91-2.47,4.19-4.52,1-7.23.63-14.75.78-22.05.17-7.63.41-15.26.49-22.89.07-6.12-.18-12.88,3.23-18.26s8.58-8.42,14.86-8.42c9.86,0,16.28,5.47,17.92,15.06s-1.92,62.44,0,62.44c1.7,0,1.68-23.6,1.73-25.44.09-3.77.18-7.53.28-11.3.12-4.33-.33-9.27,1-13.42,2.37-7.56,9.62-9.34,17.13-9,9.2.37,15.1,10.15,15.48,19.21.27,6.57-1.22,49.8.43,49.8,1.48,0,1.34-21.66,1.45-24.1.3-6.32-.63-13.88,2.68-19.57,3.45-5.92,8.54-8,15-8,14,0,15.33,13.77,16.69,25.67,1.71,14.9,1.43,29.92,1.49,44.88a286.15,286.15,0,0,1-3.55,43.51c-3.56,23.46-8.16,46.84-23.45,65.27-24.13,29.09-64.89,34.16-98.47,19.93a117,117,0,0,1-34.64-22.51,118.83,118.83,0,0,1-24.52-32.94c-5.63-11.22-8.62-23.49-12.22-35.45s-8.67-23.67-13-35.53c-4.48-12.25-10.64-24.51-16.93-37.19-3.5-7.07-10.92-15.89-9.18-24.33,2-9.83,14.77-12.29,23.08-10.37,9.93,2.3,16.82,11.62,21.46,20.21,5.13,9.5,7.84,20,12,29.92,4.3,10.21,10.73,17.71,18.21,25.7C362.15,335.16,364.44,338.33,367,337.36Z" transform="translate(-194.13 -54.37)"/></g><g id="New_Arrow"><path class="cls-3" d="M268.9,334c-1.23.89-2.67,47.49-1.2,48.68s26.94-20.46,27-23.8S270.13,333.1,268.9,334Z" transform="translate(-194.13 -54.37)"/><path class="cls-4" d="M200.15,290.55c-.12,12.41.41,24.37,5.3,35.41a54.56,54.56,0,0,0,7.89,13,52.27,52.27,0,0,0,21.37,15,70.41,70.41,0,0,0,25.84,4.44c3.17,0,6.44,0,9.4-.14" transform="translate(-194.13 -54.37)"/></g><g id="New_Arrow-2" data-name="New_Arrow"><path class="cls-3" d="M384.82,103.61c1.2-.93,1.39-47.55-.11-48.7s-26.38,21.17-26.37,24.52S383.62,104.54,384.82,103.61Z" transform="translate(-194.13 -54.37)"/><path class="cls-4" d="M454.72,145.18c-.22-12.41-1.07-24.34-6.25-35.25a54.9,54.9,0,0,0-8.24-12.75,52.25,52.25,0,0,0-21.76-14.41,70.35,70.35,0,0,0-26-3.74c-3.16.11-6.44.17-9.39.39" transform="translate(-194.13 -54.37)"/></g></g><path class="cls-5" d="M248.65,482.64V509a15.2,15.2,0,0,1-2,7.92,13,13,0,0,1-5.84,5.21,20.81,20.81,0,0,1-9,1.82q-7.86,0-12.21-4t-4.35-11V482.64h8.62v24.95q0,4.71,1.89,6.92c1.26,1.46,3.36,2.2,6.27,2.2s4.88-.74,6.15-2.22,1.91-3.79,1.91-6.95v-24.9Z" transform="translate(-194.13 -54.37)"/><path class="cls-5" d="M279.7,514.14a8.59,8.59,0,0,1-3.33,7.31Q273,524,266.4,524a31.78,31.78,0,0,1-5.79-.46,21.73,21.73,0,0,1-4.49-1.36v-7a29.77,29.77,0,0,0,5.34,1.87,21.68,21.68,0,0,0,5.22.75q4.63,0,4.63-2.68a2.23,2.23,0,0,0-.61-1.63,9,9,0,0,0-2.12-1.42c-1-.53-2.34-1.15-4-1.85a26.08,26.08,0,0,1-5.28-2.79,8,8,0,0,1-2.45-2.94,9.76,9.76,0,0,1-.77-4.09,7.38,7.38,0,0,1,3.22-6.42q3.23-2.28,9.13-2.28a25.85,25.85,0,0,1,11,2.46l-2.57,6.13a45.25,45.25,0,0,0-4.37-1.64,13.68,13.68,0,0,0-4.16-.64c-2.51,0-3.76.67-3.76,2a2.39,2.39,0,0,0,1.21,2,33.24,33.24,0,0,0,5.31,2.48,25.24,25.24,0,0,1,5.36,2.76,8.1,8.1,0,0,1,2.5,3A9,9,0,0,1,279.7,514.14Z" transform="translate(-194.13 -54.37)"/><path class="cls-5" d="M306.13,523.4l-1.64-4.24h-.22a12.74,12.74,0,0,1-4.42,3.75,14.25,14.25,0,0,1-5.93,1.05,9.59,9.59,0,0,1-7.07-2.57q-2.57-2.57-2.57-7.3c0-3.31,1.15-5.75,3.47-7.32s5.8-2.44,10.47-2.61l5.4-.16v-1.37c0-3.16-1.61-4.74-4.85-4.74a22,22,0,0,0-8.78,2.26l-2.82-5.74a25.34,25.34,0,0,1,11.94-2.82q6.27,0,9.62,2.73t3.34,8.31V523.4ZM303.62,509l-3.29.11a10.48,10.48,0,0,0-5.52,1.34,4.22,4.22,0,0,0-1.81,3.73q0,3.6,4.13,3.6a6.54,6.54,0,0,0,4.72-1.7,6,6,0,0,0,1.77-4.52Z" transform="translate(-194.13 -54.37)"/><path class="cls-5" d="M357.74,523.4l-1.15-4h-.44a8.94,8.94,0,0,1-3.88,3.36,13.22,13.22,0,0,1-5.71,1.19q-5.49,0-8.28-2.94t-2.79-8.47V492.23H344v18.21a8.77,8.77,0,0,0,1.2,5.06,4.37,4.37,0,0,0,3.82,1.68q3.57,0,5.16-2.38c1.06-1.59,1.59-4.22,1.59-7.91V492.23h8.5V523.4Z" transform="translate(-194.13 -54.37)"/><path class="cls-5" d="M402,523.4h-8.51V505.19a8.77,8.77,0,0,0-1.2-5.06,4.37,4.37,0,0,0-3.82-1.68q-3.57,0-5.15,2.38c-1.06,1.59-1.59,4.22-1.59,7.91V523.4h-8.51V492.23h6.5l1.14,4h.48a8.92,8.92,0,0,1,3.91-3.42,13.41,13.41,0,0,1,5.68-1.16c3.62,0,6.37,1,8.25,2.95s2.82,4.79,2.82,8.49Z" transform="translate(-194.13 -54.37)"/><path class="cls-5" d="M435.41,524a10.12,10.12,0,0,1-8.63-4.27q-3.13-4.26-3.14-11.82t3.2-11.95a10.36,10.36,0,0,1,8.79-4.28,10.17,10.17,0,0,1,9,4.58h.28a34.62,34.62,0,0,1-.64-6.22V480h8.53V523.4h-6.53l-1.64-4h-.36A9.75,9.75,0,0,1,435.41,524Zm3-6.78a5.76,5.76,0,0,0,4.78-1.89c1-1.27,1.57-3.41,1.66-6.44v-.92q0-5-1.54-7.2c-1-1.45-2.71-2.17-5-2.17a5,5,0,0,0-4.42,2.41q-1.57,2.41-1.57,7t1.59,6.9A5.17,5.17,0,0,0,438.39,517.18Z" transform="translate(-194.13 -54.37)"/><path class="cls-5" d="M475.78,524q-7.53,0-11.77-4.16T459.78,508q0-7.83,3.91-12.12c2.61-2.85,6.23-4.28,10.83-4.28q6.62,0,10.29,3.77t3.68,10.4v4.12h-20.1a8.15,8.15,0,0,0,2.15,5.66,7.54,7.54,0,0,0,5.63,2,23.31,23.31,0,0,0,5.32-.59,26.41,26.41,0,0,0,5.25-1.87v6.58a19.67,19.67,0,0,1-4.77,1.66A29.53,29.53,0,0,1,475.78,524Zm-1.2-26.27a5.41,5.41,0,0,0-4.24,1.72,7.87,7.87,0,0,0-1.75,4.86h11.93a7.08,7.08,0,0,0-1.65-4.86A5.58,5.58,0,0,0,474.58,497.69Z" transform="translate(-194.13 -54.37)"/><path class="cls-5" d="M505.28,524a10.1,10.1,0,0,1-8.63-4.27q-3.13-4.26-3.14-11.82t3.19-11.95a10.38,10.38,0,0,1,8.8-4.28,10.19,10.19,0,0,1,9,4.58h.27a35.56,35.56,0,0,1-.64-6.22V480h8.53V523.4h-6.52l-1.64-4h-.37A9.74,9.74,0,0,1,505.28,524Zm3-6.78a5.77,5.77,0,0,0,4.78-1.89c1-1.27,1.57-3.41,1.66-6.44v-.92q0-5-1.55-7.2t-5-2.17A5,5,0,0,0,503.7,501q-1.57,2.41-1.57,7t1.58,6.9A5.19,5.19,0,0,0,508.26,517.18Z" transform="translate(-194.13 -54.37)"/><path class="cls-5" d="M559.86,507.76q0,7.61-4,11.9T544.67,524a15.67,15.67,0,0,1-7.92-2,13.08,13.08,0,0,1-5.27-5.64,19,19,0,0,1-1.84-8.59q0-7.63,4-11.88t11.21-4.24a15.7,15.7,0,0,1,7.91,2,13,13,0,0,1,5.27,5.6A18.75,18.75,0,0,1,559.86,507.76Zm-21.55,0c0,3.08.51,5.42,1.52,7a5.43,5.43,0,0,0,4.95,2.37,5.34,5.34,0,0,0,4.89-2.36q1.5-2.35,1.5-7c0-3.09-.51-5.4-1.51-6.94a6.39,6.39,0,0,0-9.84,0Q538.3,503.11,538.31,507.76Z" transform="translate(-194.13 -54.37)"/><path class="cls-5" d="M267,592.47a10.36,10.36,0,0,1-8.62-4H258c.29,2.6.44,4.1.44,4.51v12.63h-8.5V560.75h6.91l1.2,4h.39a9.84,9.84,0,0,1,8.84-4.63,10.1,10.1,0,0,1,8.64,4.27q3.12,4.26,3.13,11.85a23.35,23.35,0,0,1-1.47,8.67,12.07,12.07,0,0,1-4.17,5.6A10.68,10.68,0,0,1,267,592.47ZM264.51,567a5.38,5.38,0,0,0-4.6,1.94c-1,1.29-1.47,3.43-1.51,6.4v.92c0,3.35.5,5.74,1.5,7.19a5.31,5.31,0,0,0,4.72,2.18q5.72,0,5.72-9.43,0-4.59-1.41-6.9A4.81,4.81,0,0,0,264.51,567Z" transform="translate(-194.13 -54.37)"/><path class="cls-5" d="M305.83,591.92l-1.65-4.24H304a12.66,12.66,0,0,1-4.42,3.75,14.25,14.25,0,0,1-5.92,1,9.57,9.57,0,0,1-7.07-2.56Q284,587.35,284,582.6q0-5,3.47-7.31t10.47-2.61l5.41-.17v-1.36q0-4.74-4.85-4.74a22.09,22.09,0,0,0-8.79,2.26l-2.81-5.75a25.29,25.29,0,0,1,11.93-2.81q6.27,0,9.62,2.73t3.34,8.31v20.77Zm-2.51-14.45-3.29.12a10.59,10.59,0,0,0-5.52,1.33,4.21,4.21,0,0,0-1.81,3.74q0,3.6,4.12,3.6a6.56,6.56,0,0,0,4.73-1.7,6,6,0,0,0,1.77-4.52Z" transform="translate(-194.13 -54.37)"/><path class="cls-5" d="M337.92,560.16a14.29,14.29,0,0,1,2.87.25l-.64,8a9.6,9.6,0,0,0-2.51-.28,9,9,0,0,0-6.35,2.09,7.56,7.56,0,0,0-2.27,5.85v15.87h-8.5V560.75H327l1.25,5.24h.42a11.72,11.72,0,0,1,3.92-4.23A9.71,9.71,0,0,1,337.92,560.16Z" transform="translate(-194.13 -54.37)"/><path class="cls-5" d="M366.24,591.92l-1.64-4.24h-.23a12.57,12.57,0,0,1-4.42,3.75,14.22,14.22,0,0,1-5.92,1,9.59,9.59,0,0,1-7.07-2.56q-2.58-2.56-2.58-7.31,0-5,3.47-7.31t10.47-2.61l5.41-.17v-1.36q0-4.74-4.85-4.74a22,22,0,0,0-8.78,2.26l-2.82-5.75a25.33,25.33,0,0,1,11.94-2.81q6.27,0,9.61,2.73t3.35,8.31v20.77Zm-2.51-14.45-3.29.12a10.59,10.59,0,0,0-5.52,1.33,4.21,4.21,0,0,0-1.81,3.74c0,2.4,1.37,3.6,4.13,3.6a6.54,6.54,0,0,0,4.72-1.7,6,6,0,0,0,1.77-4.52Z" transform="translate(-194.13 -54.37)"/><path class="cls-5" d="M422.89,560.75v4.32L418,566.32a8.47,8.47,0,0,1,1.34,4.69,9.47,9.47,0,0,1-3.5,7.82q-3.5,2.79-9.71,2.8l-1.54-.09-1.25-.13a2.79,2.79,0,0,0-1.31,2.23c0,1.22,1.56,1.84,4.68,1.84H412c3.42,0,6,.73,7.82,2.2a7.88,7.88,0,0,1,2.69,6.47,9.59,9.59,0,0,1-4.56,8.47q-4.56,3-13.09,3-6.53,0-10-2.27a7.22,7.22,0,0,1-3.44-6.37,6.66,6.66,0,0,1,1.76-4.71,9.94,9.94,0,0,1,5.16-2.71,5.67,5.67,0,0,1-2.29-1.82,4.47,4.47,0,0,1,.06-5.66,11.74,11.74,0,0,1,3-2.33,8.39,8.39,0,0,1-3.89-3.4,10.32,10.32,0,0,1-1.44-5.52,9.75,9.75,0,0,1,3.32-7.89q3.31-2.79,9.48-2.79a24,24,0,0,1,3.11.24c1.2.16,2,.27,2.3.35Zm-24.06,35.57a3.08,3.08,0,0,0,1.69,2.76,9.26,9.26,0,0,0,4.72,1,16.71,16.71,0,0,0,7.17-1.25q2.59-1.26,2.59-3.43a2.42,2.42,0,0,0-1.53-2.42,12.46,12.46,0,0,0-4.74-.67h-4.41a6.61,6.61,0,0,0-3.91,1.1A3.39,3.39,0,0,0,398.83,596.32Zm3.1-25.37a6.38,6.38,0,0,0,1.15,4,4.22,4.22,0,0,0,3.53,1.47,4.11,4.11,0,0,0,3.51-1.47,6.5,6.5,0,0,0,1.12-4q0-5.62-4.63-5.63T401.93,571Z" transform="translate(-194.13 -54.37)"/><path class="cls-5" d="M427.66,552.69q0-4.16,4.63-4.15c3.08,0,4.63,1.38,4.63,4.15a4,4,0,0,1-1.16,3.08,4.88,4.88,0,0,1-3.47,1.1Q427.66,556.87,427.66,552.69Zm8.86,39.23H428V560.75h8.5Z" transform="translate(-194.13 -54.37)"/><path class="cls-5" d="M462.84,560.16a14.15,14.15,0,0,1,2.87.25l-.64,8a9.5,9.5,0,0,0-2.51-.28,9,9,0,0,0-6.34,2.09,7.56,7.56,0,0,0-2.27,5.85v15.87h-8.5V560.75h6.44l1.25,5.24h.42a11.72,11.72,0,0,1,3.92-4.23A9.7,9.7,0,0,1,462.84,560.16Z" transform="translate(-194.13 -54.37)"/><path class="cls-5" d="M491.17,591.92l-1.65-4.24h-.22a12.57,12.57,0,0,1-4.42,3.75,14.22,14.22,0,0,1-5.92,1,9.57,9.57,0,0,1-7.07-2.56q-2.58-2.56-2.58-7.31,0-5,3.47-7.31c2.32-1.57,5.8-2.44,10.47-2.61l5.41-.17v-1.36q0-4.74-4.85-4.74a22,22,0,0,0-8.78,2.26l-2.82-5.75a25.29,25.29,0,0,1,11.93-2.81q6.27,0,9.62,2.73t3.35,8.31v20.77Zm-2.51-14.45-3.29.12a10.59,10.59,0,0,0-5.52,1.33,4.21,4.21,0,0,0-1.81,3.74q0,3.6,4.12,3.6a6.56,6.56,0,0,0,4.73-1.7,6,6,0,0,0,1.77-4.52Z" transform="translate(-194.13 -54.37)"/><path class="cls-5" d="M523.26,560.16a14.22,14.22,0,0,1,2.87.25l-.64,8a9.6,9.6,0,0,0-2.51-.28,9,9,0,0,0-6.34,2.09,7.53,7.53,0,0,0-2.28,5.85v15.87h-8.5V560.75h6.44l1.26,5.24H514a11.8,11.8,0,0,1,3.92-4.23A9.73,9.73,0,0,1,523.26,560.16Z" transform="translate(-194.13 -54.37)"/></svg>