<svg xmlns="http://www.w3.org/2000/svg" viewBox="0 0 404.32 404.32"><defs><style>.cls-1,.cls-2{fill:none;}.cls-1,.cls-2,.cls-3{stroke:#fff;stroke-miterlimit:10;}.cls-1{stroke-width:15px;}.cls-2{stroke-width:2px;}.cls-3,.cls-4{fill:#fff;}.cls-3{stroke-width:3px;}</style></defs><title>One_Finger_3D</title><g id="Layer_6" data-name="Layer 6"><g id="Control_04" data-name="Control 04"><circle id="Circle2" class="cls-1" cx="202.16" cy="202.16" r="194.66"/></g></g><g id="Fingers"><g id="_1_Finger" data-name="1 Finger"><g id="Control_02" data-name="Control 02"><circle class="cls-2" cx="142.18" cy="81.56" r="32.53"/><path class="cls-3" d="M367,337.36a3.85,3.85,0,0,0,.66-.35c3.48-2.31,2.39-7.23,2.06-10.71-.62-6.36-1.08-12.73-1.7-19.09-3.4-34.69-9.24-69.09-13.06-103.73q-.69-6.3-1.35-12.6c-1.5-14.24-7.56-38.29,12.19-43,10.94-2.63,19.42,6.3,21.85,16.11,3.25,13.08,4.06,27,5.47,40.68,1.44,14,2.88,28,4.17,41.95.81,8.74,2.25,17.5,3.22,26.23,1,8.54,1.84,16.93,6.42,24.4,2.84,4.64,3.91-2.47,4.19-4.52,1-7.23.63-14.75.78-22.05.17-7.63.41-15.26.49-22.89.07-6.12-.18-12.88,3.23-18.26s8.58-8.42,14.86-8.42c9.86,0,16.28,5.47,17.92,15.06s-1.92,62.44,0,62.44c1.7,0,1.68-23.6,1.73-25.44.09-3.77.18-7.53.28-11.3.12-4.33-.33-9.27,1-13.42,2.37-7.56,9.62-9.34,17.13-9,9.2.37,15.1,10.15,15.48,19.21.27,6.57-1.22,49.8.43,49.8,1.48,0,1.34-21.66,1.45-24.1.3-6.32-.63-13.88,2.68-19.57,3.45-5.92,8.54-8,15-8,14,0,15.33,13.77,16.69,25.67,1.71,14.9,1.43,29.92,1.49,44.88a286.15,286.15,0,0,1-3.55,43.51c-3.56,23.46-8.16,46.84-23.45,65.27-24.13,29.09-64.89,34.16-98.47,19.93a117,117,0,0,1-34.64-22.51,118.83,118.83,0,0,1-24.52-32.94c-5.63-11.22-8.62-23.49-12.22-35.45s-8.67-23.67-13-35.53c-4.48-12.25-10.64-24.51-16.93-37.19-3.5-7.07-10.92-15.89-9.18-24.33,2-9.83,14.77-12.29,23.08-10.37,9.93,2.3,16.82,11.62,21.46,20.21,5.13,9.5,7.84,20,12,29.92,4.3,10.21,10.73,17.71,18.21,25.7C362.15,335.16,364.44,338.33,367,337.36Z" transform="translate(-227.66 -85.29)"/></g></g><path class="cls-4" d="M470.3,151.84a14.84,14.84,0,0,1-3.57,10,18.47,18.47,0,0,1-10,5.68v.26q7.62.94,11.55,4.63a13,13,0,0,1,3.92,9.93q0,9.09-6.59,14.15t-18.83,5.07a45.73,45.73,0,0,1-18.18-3.41V186.86a41.06,41.06,0,0,0,8.06,3,34.13,34.13,0,0,0,8.7,1.16c4.39,0,7.64-.74,9.74-2.24s3.14-3.89,3.14-7.19a6.5,6.5,0,0,0-3.62-6.29Q451,173.46,443,173.47h-4.78V163.26h4.86c4.89,0,8.45-.64,10.71-1.92s3.38-3.47,3.38-6.57q0-7.16-9-7.15a20.46,20.46,0,0,0-6.31,1,30.6,30.6,0,0,0-7.13,3.58l-6.16-9.18q8.61-6.2,20.55-6.2,9.78,0,15.44,4A12.71,12.71,0,0,1,470.3,151.84Z" transform="translate(-227.66 -85.29)"/><path class="cls-4" d="M535.74,168.64q0,15.56-8.85,23.82t-25.57,8.27H483.49v-63h19.77q15.42,0,24,8.14T535.74,168.64Zm-13.87.35q0-20.3-17.92-20.29h-7.11v41h5.73Q521.88,189.71,521.87,169Z" transform="translate(-227.66 -85.29)"/></g></svg>